<svg xmlns="http://www.w3.org/2000/svg" width="55" height="56" fill="none" xmlns:v="https://vecta.io/nano"><g clip-path="url(#A)" fill="#fff"><path d="M.498 8.407h26.972c.269 0 .498.23.498.518 0 .059-.02.144-.059.203-.374.866-.662 1.758-.866 2.689a14.05 14.05 0 0 0-.288 2.807c0 5.41 6.427 15.529 10.906 22.618l2.728 4.354c.741-1.239 1.672-2.708 2.728-4.354 2.125-3.344 4.669-7.371 6.774-11.26.125-.249.433-.328.662-.203.164.085.269.269.269.433v28.566c0 .289-.229.498-.498.498H.498A.49.49 0 0 1 0 54.777V8.925c0-.289.23-.518.498-.518zm26.231 1.01H.99v44.862h48.829V28.133c-1.902 3.39-4.046 6.755-5.863 9.647-1.259 1.961-2.354 3.718-3.121 5.036-.039.085-.125.144-.203.21-.23.125-.538.039-.682-.184-.767-1.325-1.882-3.076-3.141-5.063-4.545-7.187-11.05-17.476-11.05-23.155 0-1.03.105-2.046.308-3.017a14.64 14.64 0 0 1 .662-2.19z" fill-opacity=".4"/><path d="M.374 26.559l26.598-7.141.269.944L.617 27.51l-.243-.951zm49.629 28.612L23.648 34.284l.623-.761 26.356 20.86-.623.787z" fill-opacity=".4"/><path d="M30.671 26.874a.5.5 0 0 1 .702.02c.184.203.164.518-.02.702L2.23 55.144l-.682-.721 29.123-27.556v.006zm-8.755-9.791L10.079 9.338l.538-.853 17.247 11.299-.538.826-5.41-3.528z" fill-opacity=".4"/><path d="M40.376 0a14.6 14.6 0 0 1 10.348 4.295A14.57 14.57 0 0 1 55 14.624c0 5.679-6.505 15.968-11.05 23.156l-3.141 5.063c-.144.229-.453.308-.682.184a.71.71 0 0 1-.184-.184c-.767-1.325-1.882-3.076-3.141-5.063v-.039c-4.564-7.187-11.05-17.431-11.05-23.11a14.57 14.57 0 0 1 4.276-10.328C32.671 1.659 36.35.007 40.376.007V0zm9.646 4.997c-2.479-2.459-5.889-3.987-9.646-3.987s-7.168 1.528-9.627 3.987a13.52 13.52 0 0 0-4.007 9.627c0 5.39 6.4 15.509 10.886 22.598l.02.02 2.728 4.354c.741-1.239 1.672-2.708 2.728-4.354C47.583 30.16 54.01 20.034 54.01 14.624c0-3.758-1.528-7.168-3.987-9.627zm-9.646.433a8.73 8.73 0 0 1 6.217 2.584c1.593 1.594 2.584 3.803 2.584 6.217a8.78 8.78 0 0 1-2.584 6.217c-1.594 1.594-3.777 2.584-6.217 2.584a8.73 8.73 0 0 1-6.217-2.584c-1.593-1.587-2.584-3.777-2.584-6.217a8.73 8.73 0 0 1 2.584-6.217 8.76 8.76 0 0 1 6.217-2.584zm5.515 3.285a7.79 7.79 0 0 0-5.515-2.276c-2.151 0-4.112.866-5.515 2.276-1.403 1.423-2.295 3.364-2.295 5.515a7.78 7.78 0 0 0 2.295 5.515c1.403 1.423 3.364 2.295 5.515 2.295a7.7 7.7 0 0 0 5.515-2.295c1.403-1.403 2.295-3.344 2.295-5.515s-.885-4.092-2.295-5.515zm-5.515 0c-.269 0-.498-.21-.498-.498a.51.51 0 0 1 .498-.498A6.47 6.47 0 0 1 44.98 9.62c1.174 1.2 1.902 2.807 1.902 4.604 0 .289-.23.498-.498.498a.49.49 0 0 1-.498-.498 5.5 5.5 0 0 0-1.613-3.882c-.99-1.01-2.374-1.633-3.902-1.633l.007.007z" fill-opacity=".4"/></g><defs><clipPath id="A"><path fill="#fff" d="M0 0h55v55.269H0z"/></clipPath></defs></svg>