<svg xmlns="http://www.w3.org/2000/svg" width="55" height="55" fill="none" xmlns:v="https://vecta.io/nano"><g clip-path="url(#A)" fill="#fff"><path d="M3.566 7.78h5.762v4.453a1.52 1.52 0 0 0 .465 1.095c.269.269.654.44 1.076.44s.807-.171 1.077-.44c.287-.287.465-.673.465-1.095V7.78h30.21v4.453c0 .422.171.807.44 1.095.288.269.673.44 1.077.44a1.64 1.64 0 0 0 1.095-.44 1.61 1.61 0 0 0 .447-1.095V7.78h5.78a3.56 3.56 0 0 1 2.502 1.04c.636.654 1.04 1.541 1.04 2.502v39.281c0 .96-.404 1.847-1.04 2.502a3.57 3.57 0 0 1-2.502 1.04H3.566c-.985 0-1.872-.404-2.502-1.04C.41 52.449.006 51.563.006 50.602V11.328c0-.96.404-1.847 1.058-2.502.636-.636 1.523-1.04 2.502-1.04V7.78zm4.795.985H3.566a2.58 2.58 0 0 0-1.829.752c-.459.465-.752 1.119-.752 1.811v39.28a2.58 2.58 0 0 0 .752 1.81c.465.465 1.119.771 1.829.771h47.893c.71 0 1.346-.306 1.811-.771a2.52 2.52 0 0 0 .771-1.81v-39.28a2.52 2.52 0 0 0-.771-1.811c-.465-.465-1.101-.752-1.811-.752h-4.814v3.468c0 .691-.269 1.327-.734 1.774-.44.465-1.077.734-1.774.734s-1.309-.269-1.756-.734c-.459-.44-.752-1.076-.752-1.774V8.765H13.371v3.468a2.52 2.52 0 0 1-.734 1.774c-.465.465-1.077.734-1.774.734s-1.309-.269-1.774-.734c-.44-.44-.734-1.076-.734-1.774V8.765h.006z" fill-opacity=".4"/><path d="M54.523 17.818H.501v.966h54.021v-.966zM5.548 21.634h5.743a1.25 1.25 0 0 1 .924.404c.251.232.404.557.404.924v5.432c0 .367-.153.691-.385.924a1.31 1.31 0 0 1-.942.385H5.548c-.367 0-.691-.135-.924-.385a1.23 1.23 0 0 1-.385-.924v-5.431c0-.367.135-.691.385-.924.232-.251.557-.404.924-.404zm5.743.985H5.548c-.098 0-.19.037-.251.098-.055.055-.098.153-.098.251V28.4c0 .098.037.171.098.251.055.061.153.098.251.098h5.743c.098 0 .196-.037.251-.098.055-.079.098-.153.098-.251v-5.431c0-.098-.037-.196-.098-.251s-.153-.098-.251-.098zm6.973-.985h5.762a1.28 1.28 0 0 1 .924.404c.232.232.385.557.385.924v5.432c0 .367-.153.691-.385.924a1.3 1.3 0 0 1-.924.385h-5.762a1.26 1.26 0 0 1-.924-.385c-.232-.232-.385-.557-.385-.924v-5.431c0-.367.153-.691.385-.924a1.28 1.28 0 0 1 .924-.404zm5.762.985h-5.762c-.098 0-.171.037-.232.098-.079.055-.116.153-.116.251V28.4c0 .098.037.171.098.251.08.061.153.098.251.098h5.762c.098 0 .171-.037.232-.098a.33.33 0 0 0 .116-.251v-5.431c0-.098-.037-.196-.116-.251-.055-.055-.134-.098-.232-.098zm6.973-.985h5.743a1.25 1.25 0 0 1 .924.404 1.23 1.23 0 0 1 .385.924v5.432a1.23 1.23 0 0 1-.385.924 1.23 1.23 0 0 1-.924.385h-5.743a1.3 1.3 0 0 1-.942-.385c-.232-.232-.385-.557-.385-.924v-5.431c0-.367.153-.691.385-.924a1.33 1.33 0 0 1 .942-.404zm5.743.985h-5.743c-.098 0-.196.037-.251.098-.055.055-.098.153-.098.251V28.4c0 .098.037.171.098.251.055.061.153.098.251.098h5.743c.098 0 .19-.037.251-.098.055-.079.098-.153.098-.251v-5.431c0-.098-.037-.196-.098-.251-.055-.055-.153-.098-.251-.098zm6.967-.985h5.744c.367 0 .691.153.942.404a1.3 1.3 0 0 1 .385.924v5.432c0 .367-.153.691-.385.924a1.31 1.31 0 0 1-.942.385h-5.744c-.367 0-.691-.135-.924-.385a1.23 1.23 0 0 1-.385-.924v-5.431c0-.367.135-.691.385-.924.232-.251.557-.404.924-.404zm5.744.985h-5.744c-.098 0-.171.037-.251.098-.055.055-.098.153-.098.251V28.4c0 .098.037.171.098.251.079.061.153.098.251.098h5.744c.098 0 .196-.037.251-.098a.33.33 0 0 0 .116-.251v-5.431c0-.098-.037-.196-.116-.251-.055-.055-.153-.098-.251-.098zM5.548 32.363h5.743c.367 0 .691.153.924.385a1.29 1.29 0 0 1 .404.924v5.432a1.38 1.38 0 0 1-.385.942c-.251.232-.581.385-.942.385H5.548c-.367 0-.691-.153-.924-.385a1.3 1.3 0 0 1-.385-.942v-5.431a1.26 1.26 0 0 1 .385-.924c.232-.232.557-.385.924-.385zm5.743.966H5.548c-.098 0-.19.037-.251.116-.055.055-.098.135-.098.232v5.432c0 .098.037.19.098.251.055.055.153.116.251.116h5.743c.098 0 .196-.037.251-.116.055-.055.098-.153.098-.251v-5.431c0-.098-.037-.171-.098-.232-.055-.08-.153-.116-.251-.116zm6.973-.966h5.762a1.34 1.34 0 0 1 .924.385 1.35 1.35 0 0 1 .385.924v5.432a1.38 1.38 0 0 1-.385.942c-.251.232-.581.385-.924.385h-5.762a1.34 1.34 0 0 1-.924-.385 1.38 1.38 0 0 1-.385-.942v-5.431a1.34 1.34 0 0 1 .385-.924c.232-.233.575-.385.924-.385zm5.762.966h-5.762c-.098 0-.171.037-.232.116-.079.055-.116.135-.116.232v5.432c0 .098.037.19.098.251.08.055.153.116.251.116h5.762c.098 0 .171-.037.232-.116.08-.055.116-.153.116-.251v-5.431c0-.098-.037-.171-.116-.232-.055-.08-.134-.116-.232-.116zm6.973-.966h5.743c.367 0 .691.153.924.385a1.27 1.27 0 0 1 .385.924v5.432a1.3 1.3 0 0 1-.385.942c-.232.232-.557.385-.924.385h-5.743a1.38 1.38 0 0 1-.942-.385 1.38 1.38 0 0 1-.385-.942v-5.431a1.34 1.34 0 0 1 .385-.924c.251-.232.581-.385.942-.385zm5.743.966h-5.743c-.098 0-.196.037-.251.116-.055.055-.098.135-.098.232v5.432c0 .098.037.19.098.251.055.055.153.116.251.116h5.743c.098 0 .19-.037.251-.116.055-.055.098-.153.098-.251v-5.431c0-.098-.037-.171-.098-.232-.055-.08-.153-.116-.251-.116zm6.967-.966h5.744a1.38 1.38 0 0 1 .942.385 1.35 1.35 0 0 1 .385.924v5.432a1.38 1.38 0 0 1-.385.942c-.251.232-.581.385-.942.385h-5.744c-.367 0-.691-.153-.924-.385a1.3 1.3 0 0 1-.385-.942v-5.431c0-.349.135-.691.385-.924.232-.232.557-.385.924-.385zm5.744.966h-5.744c-.098 0-.171.037-.251.116-.055.055-.098.135-.098.232v5.432c0 .098.037.19.098.251.079.055.153.116.251.116h5.744c.098 0 .196-.037.251-.116.08-.055.116-.153.116-.251v-5.431c0-.098-.037-.171-.116-.232-.055-.08-.153-.116-.251-.116zm-43.905 9.75h5.743a1.25 1.25 0 0 1 .924.404 1.25 1.25 0 0 1 .404.924v5.432c0 .367-.153.691-.385.924a1.31 1.31 0 0 1-.942.385H5.548c-.367 0-.691-.135-.924-.385a1.23 1.23 0 0 1-.385-.924v-5.431c0-.367.135-.691.385-.924.232-.251.557-.404.924-.404zm5.743.985H5.548c-.098 0-.19.037-.251.098-.055.055-.098.153-.098.251v5.432c0 .098.037.171.098.251.055.055.153.098.251.098h5.743c.098 0 .196-.037.251-.098.055-.079.098-.153.098-.251v-5.431c0-.098-.037-.19-.098-.251-.055-.055-.153-.098-.251-.098zm6.973-.985h5.762a1.28 1.28 0 0 1 .924.404c.232.233.385.557.385.924v5.432c0 .367-.153.691-.385.924a1.3 1.3 0 0 1-.924.385h-5.762a1.26 1.26 0 0 1-.924-.385c-.232-.232-.385-.557-.385-.924v-5.431c0-.367.153-.691.385-.924a1.28 1.28 0 0 1 .924-.404zm5.762.985h-5.762c-.098 0-.171.037-.232.098-.079.055-.116.153-.116.251v5.432c0 .098.037.171.098.251.08.055.153.098.251.098h5.762c.098 0 .171-.037.232-.098a.33.33 0 0 0 .116-.251v-5.431c0-.098-.037-.19-.116-.251-.055-.055-.134-.098-.232-.098zm6.973-.985h5.743a1.25 1.25 0 0 1 .924.404c.251.233.385.557.385.924v5.432a1.23 1.23 0 0 1-.385.924 1.23 1.23 0 0 1-.924.385h-5.743a1.3 1.3 0 0 1-.942-.385c-.232-.232-.385-.557-.385-.924v-5.431c0-.367.153-.691.385-.924a1.33 1.33 0 0 1 .942-.404zm5.743.985h-5.743c-.098 0-.196.037-.251.098-.055.055-.098.153-.098.251v5.432c0 .098.037.171.098.251.055.055.153.098.251.098h5.743c.098 0 .19-.037.251-.098.055-.079.098-.153.098-.251v-5.431c0-.098-.037-.19-.098-.251-.055-.055-.153-.098-.251-.098zm6.967-.985h5.744c.367 0 .691.153.942.404a1.3 1.3 0 0 1 .385.924v5.432c0 .367-.153.691-.385.924a1.31 1.31 0 0 1-.942.385h-5.744c-.367 0-.691-.135-.924-.385a1.23 1.23 0 0 1-.385-.924v-5.431c0-.367.135-.691.385-.924.232-.251.557-.404.924-.404zm5.744.985h-5.744c-.098 0-.171.037-.251.098-.055.055-.098.153-.098.251v5.432c0 .098.037.171.098.251.079.055.153.098.251.098h5.744c.098 0 .196-.037.251-.098a.33.33 0 0 0 .116-.251v-5.431c0-.098-.037-.19-.116-.251-.055-.055-.153-.098-.251-.098zM10.863 0c.691 0 1.309.269 1.774.734a2.5 2.5 0 0 1 .734 1.774v9.731a2.52 2.52 0 0 1-.734 1.774c-.465.465-1.076.734-1.774.734s-1.309-.269-1.774-.734c-.44-.44-.734-1.076-.734-1.774V2.502A2.52 2.52 0 0 1 9.089.728c.465-.465 1.077-.734 1.774-.734V0zm1.076 1.407A1.53 1.53 0 0 0 10.863.96c-.422 0-.807.171-1.077.447-.287.287-.465.673-.465 1.095v9.731a1.52 1.52 0 0 0 .465 1.095c.269.269.654.44 1.077.44s.807-.171 1.076-.44c.288-.287.465-.673.465-1.095V2.502a1.52 1.52 0 0 0-.465-1.095zM44.137 0c.691 0 1.327.269 1.774.734.465.44.734 1.077.734 1.774v9.731c0 .691-.269 1.327-.734 1.774-.44.465-1.077.734-1.774.734a2.39 2.39 0 0 1-1.755-.734 2.46 2.46 0 0 1-.752-1.774V2.502a2.46 2.46 0 0 1 .752-1.774c.44-.465 1.077-.734 1.755-.734V0zm1.095 1.407A1.61 1.61 0 0 0 44.137.96c-.422 0-.789.171-1.077.447-.269.287-.44.673-.44 1.095v9.731c0 .422.171.807.44 1.095.288.269.673.44 1.077.44a1.64 1.64 0 0 0 1.095-.44 1.61 1.61 0 0 0 .447-1.095V2.502a1.58 1.58 0 0 0-.447-1.095z" fill-opacity=".4"/></g><defs><clipPath id="A"><path fill="#fff" d="M0 0h55v54.156H0z"/></clipPath></defs></svg>