<svg xmlns="http://www.w3.org/2000/svg" width="60" height="51" fill="none" xmlns:v="https://vecta.io/nano"><g clip-path="url(#A)" fill="#fff"><path d="M41.973 5.625l-19.928 4.861V38.81l5.703-1.389-.288-1.571c-.091-.73-.133-1.438-.133-2.167 0-4.286 1.655-8.193 4.377-11.111a16.25 16.25 0 0 1 10.276-5.127V5.625h-.007zM21.408 9.56l20.945-5.106c.042-.021.112-.021.154-.021a.51.51 0 0 1 .533.533v12.969a.52.52 0 0 1-.484.533c-3.977.288-7.533 2.097-10.073 4.84-2.539 2.715-4.089 6.362-4.089 10.381 0 .708.042 1.368.133 2.013a14.41 14.41 0 0 0 .4 1.985c.063.288-.112.575-.4.638l-6.825 1.655c-.063.021-.112.042-.175.042-.288 0-.533-.245-.533-.533V10.066c0-.217.175-.442.421-.505h-.007z" fill-opacity=".4"/><path d="M.708 4.454L21.653 9.56c.245.063.4.288.4.505V39.49c0 .288-.217.533-.533.533-.042 0-.112-.021-.154-.042L.4 34.875c-.245-.042-.4-.266-.4-.505V4.966a.53.53 0 0 1 .533-.533.5.5 0 0 1 .175.021zm20.278 6.032L1.059 5.625v28.324l19.928 4.861V10.486z" fill-opacity=".4"/><path d="M.421 4.433L21.408.014c.091-.021.154-.021.217 0l20.987 4.419c.288.063.484.351.421.638-.042.196-.218.351-.421.4l-20.966 5.127c-.091.021-.175.021-.245 0L.4 5.471c-.267-.063-.442-.351-.379-.638a.53.53 0 0 1 .4-.4zM21.52 1.08L2.939 4.987 21.52 9.539l18.602-4.552L21.52 1.08zM5.233 31.031a.53.53 0 0 1-.533.533.51.51 0 0 1-.533-.533V9.694a.53.53 0 0 1 .533-.533.54.54 0 0 1 .533.533v21.344-.007zm4.159-3.402c0 .287-.245.533-.533.533-.309 0-.554-.246-.554-.533V13.096c0-.288.245-.533.554-.533a.54.54 0 0 1 .533.533V27.63zm34.265-10.29c4.51 0 8.593 1.831 11.553 4.791S60 29.179 60 33.683s-1.831 8.614-4.791 11.574a16.28 16.28 0 0 1-11.553 4.77 16.33 16.33 0 0 1-11.574-4.77c-2.96-2.96-4.77-7.049-4.77-11.574a16.24 16.24 0 0 1 4.77-11.552l.021-.021c2.96-2.939 7.049-4.77 11.553-4.77zm10.76 5.59a15.13 15.13 0 0 0-10.76-4.482c-4.202 0-8.017 1.725-10.781 4.461a15.21 15.21 0 0 0-4.461 10.781 15.24 15.24 0 0 0 4.461 10.781 15.16 15.16 0 0 0 10.781 4.461c4.223 0 8.017-1.705 10.76-4.461a15.17 15.17 0 0 0 4.461-10.781c0-4.216-1.697-8.017-4.461-10.76zM33.072 33.816c-.133-.267-.042-.596.218-.751a.54.54 0 0 1 .751.196l4.223 7.309 15.067-15.067c.217-.218.575-.218.793 0s.218.575 0 .771l-15.6 15.6-.112.091a.55.55 0 0 1-.75-.196l-4.594-7.954h.007z" fill-opacity=".4"/></g><defs><clipPath id="A"><path fill="#fff" d="M0 0h60v50.033H0z"/></clipPath></defs></svg>