<svg xmlns="http://www.w3.org/2000/svg" width="141" height="23" fill="none" xmlns:v="https://vecta.io/nano"><path d="M56.886 6.575L53.796 17h-1.935l-2.19-7.89L47.346 17l-1.92.015-2.955-10.44h1.815l2.16 8.49 2.34-8.49h1.92l2.175 8.445 2.175-8.445h1.83zm7.695 8.295h-4.365l-.75 2.13h-1.785l3.735-10.44h1.98L67.131 17h-1.8l-.75-2.13zm-.48-1.395L62.406 8.63l-1.71 4.845h3.405zm13.639-6.9L73.825 17h-1.98l-3.93-10.425h1.83l3.09 8.67 3.105-8.67h1.8zm3.14 1.38v3.06h3.6v1.395h-3.6v3.195h4.05V17h-5.76V6.56h5.76v1.395h-4.05z" fill="#f15e54"/><path d="M86.467 11.765c0-1.02.235-1.935.705-2.745.48-.81 1.125-1.44 1.935-1.89.82-.46 1.715-.69 2.685-.69 1.11 0 2.095.275 2.955.825.87.54 1.5 1.31 1.89 2.31h-2.055c-.27-.55-.645-.96-1.125-1.23s-1.035-.405-1.665-.405c-.69 0-1.305.155-1.845.465s-.965.755-1.275 1.335c-.3.58-.45 1.255-.45 2.025s.15 1.445.45 2.025c.31.58.735 1.03 1.275 1.35.54.31 1.155.465 1.845.465.63 0 1.185-.135 1.665-.405s.855-.68 1.125-1.23h2.055c-.39 1-1.02 1.77-1.89 2.31-.86.54-1.845.81-2.955.81-.98 0-1.875-.225-2.685-.675a5.2 5.2 0 0 1-1.935-1.905c-.47-.81-.705-1.725-.705-2.745zm18.456 3.105h-4.365l-.75 2.13h-1.785l3.735-10.44h1.98L107.473 17h-1.8l-.75-2.13zm-.48-1.395l-1.695-4.845-1.71 4.845h3.405zM114.512 17l-2.4-4.17h-1.305V17h-1.71V6.575h3.6c.8 0 1.475.14 2.025.42.56.28.975.655 1.245 1.125.28.47.42.995.42 1.575 0 .68-.2 1.3-.6 1.86-.39.55-.995.925-1.815 1.125l2.58 4.32h-2.04zm-3.705-5.535h1.89c.64 0 1.12-.16 1.44-.48.33-.32.495-.75.495-1.29s-.16-.96-.48-1.26c-.32-.31-.805-.465-1.455-.465h-1.89v3.495zm15.313-1.89c-.27-.52-.645-.91-1.125-1.17-.48-.27-1.035-.405-1.665-.405-.69 0-1.305.155-1.845.465s-.965.75-1.275 1.32c-.3.57-.45 1.23-.45 1.98s.15 1.415.45 1.995c.31.57.735 1.01 1.275 1.32s1.155.465 1.845.465c.93 0 1.685-.26 2.265-.78s.935-1.225 1.065-2.115h-3.915v-1.365h5.745v1.335c-.11.81-.4 1.555-.87 2.235-.46.68-1.065 1.225-1.815 1.635-.74.4-1.565.6-2.475.6-.98 0-1.875-.225-2.685-.675a5.2 5.2 0 0 1-1.935-1.905c-.47-.81-.705-1.725-.705-2.745s.235-1.935.705-2.745c.48-.81 1.125-1.44 1.935-1.89.82-.46 1.715-.69 2.685-.69 1.11 0 2.095.275 2.955.825.87.54 1.5 1.31 1.89 2.31h-2.055zm8.811 7.53a5.49 5.49 0 0 1-2.685-.675 5.2 5.2 0 0 1-1.935-1.905c-.47-.82-.705-1.74-.705-2.76s.235-1.935.705-2.745c.48-.81 1.125-1.44 1.935-1.89.82-.46 1.715-.69 2.685-.69.98 0 1.875.23 2.685.69a4.95 4.95 0 0 1 1.935 1.89c.47.81.705 1.725.705 2.745s-.235 1.94-.705 2.76a5.06 5.06 0 0 1-1.935 1.905c-.81.45-1.705.675-2.685.675zm0-1.485c.69 0 1.305-.155 1.845-.465.54-.32.96-.77 1.26-1.35.31-.59.465-1.27.465-2.04s-.155-1.445-.465-2.025c-.3-.58-.72-1.025-1.26-1.335s-1.155-.465-1.845-.465-1.305.155-1.845.465-.965.755-1.275 1.335c-.3.58-.45 1.255-.45 2.025s.15 1.45.45 2.04c.31.58.735 1.03 1.275 1.35.54.31 1.155.465 1.845.465z" fill="#fff"/><g clip-path="url(#A)" fill-rule="evenodd" fill="#fff"><path d="M35 4.29C22.993 6.269 10.198 11.301 0 17.941c9.651-4.116 21.195-7.323 31.62-8.372a36.61 36.61 0 0 1 3.379-5.279m-5.994 11.659a136.19 136.19 0 0 0-24.318 3.248c8.705-1.034 18.308-1.161 23.651-.716a33 33 0 0 1 .667-2.532M14.907 3L4.9 13.045l9.716-7.154.069 3.442a98.29 98.29 0 0 1 10.333-3.624v-.85L14.907 3zM7.625 16.826c6.485-1.249 14.389-2.095 21.88-2.405.35-1.052.841-2.151 1.284-3.165-7.805.468-16.484 2.901-23.165 5.57"/></g><defs><clipPath id="A"><path fill="#fff" transform="translate(0 3)" d="M0 0h35v16.196H0z"/></clipPath></defs></svg>