<svg xmlns="http://www.w3.org/2000/svg" viewBox="0 0 900 302" fill="#8e9aa1" xmlns:v="https://vecta.io/nano"><path d="M82.128 208.89c-.206 0-.413-.022-.619-.033a413.08 413.08 0 0 1 29.15-36.579 516.08 516.08 0 0 0-37.762 5.563c12.78-15.157 26.633-29.531 41.463-43.057-11.226-1.016-22.63-1.708-34.214-2.066-12.739 15.302-24.35 31.24-34.777 47.758-9.644 4.256-19.287 8.857-28.876 13.828.069-.246.124-.503.193-.749 9.41-4.858 18.861-9.359 28.312-13.536 10.51-16.631 22.217-32.67 35.08-48.06a577.18 577.18 0 0 1 35.685 2.222c-.138.123-.275.257-.413.38-14.651 13.313-28.339 27.453-40.995 42.364 12.711-2.312 25.285-4.11 37.707-5.428-10.744 11.962-20.731 24.437-29.921 37.404l-.014-.011z"/><path d="M144.36 164.71c-11.074 2.1-22.231 4.624-33.443 7.584.537-12.532 1.761-25.186 3.728-37.93 13.097-4.579 26.221-8.6 39.318-12.085 2.531-7.07 5.323-14.128 8.377-21.176l.95-.235a360.27 360.27 0 0 0-8.626 21.757c-13.055 3.452-26.124 7.439-39.193 11.996-1.912 12.386-3.137 24.694-3.687 36.868 10.744-2.803 21.419-5.204 32.026-7.226 4.897-11.381 10.496-22.695 16.811-33.897 8.859-2.815 17.719-5.373 26.592-7.685l-.165.536a536.2 536.2 0 0 0-25.836 7.461c-6.342 11.247-11.954 22.606-16.865 34.043l.013-.011z"/><path d="M115.5 134.36l-.881.235a396.47 396.47 0 0 1 20.003-35.618l.921-.19c-7.415 11.716-14.087 23.589-20.043 35.573zm90.78-30.27l-.95.38a758.37 758.37 0 0 1-7.277-21.869c15.807-5.495 31.792-10.287 47.874-14.386v.458a588.67 588.67 0 0 0-46.732 14.006l7.071 21.41h.014zm77.85-57.583l-.825-.112c13.014-9.36 26.798-18.295 41.284-26.772a662.58 662.58 0 0 0-43.417.101c.152-.168.289-.335.44-.503a666.31 666.31 0 0 1 44.834-.022c-14.871 8.622-28.999 17.747-42.316 27.308z"/><path d="M325.69 19.59l-.33-.369a678.53 678.53 0 0 1 51.698-11.526l.275.391c-17.471 3.183-34.708 7.014-51.657 11.504h.014zM128.72 202.62l-.757.525c-5.998-10.141-11.68-20.472-17.017-30.971l.839-.548a563.34 563.34 0 0 0 16.948 30.994h-.013zm93.01-6.06l-.633-.067c7.58-9.762 15.861-19.267 24.858-28.47a465.8 465.8 0 0 0-28.435-6.389l.55-.536c9.891 1.91 19.562 4.11 28.986 6.568-.083.078-.151.156-.234.234-9.079 9.27-17.444 18.842-25.079 28.66h-.013zm49.38-19.98l-.481-.257c17.113-11.895 35.63-22.662 55.385-32.178l.426.313c-19.741 9.493-38.244 20.249-55.344 32.122h.014zm55.34-5.36c-8.103.469-16.247 1.162-24.46 2.089l.083-.458a451.48 451.48 0 0 1 24.487-2.089c-.041.157-.083.302-.11.458z"/><path d="M287.92 228.3l-.66.167c-1.94-9.605-3.481-19.322-4.609-29.128-8.887-.134-17.925.044-27.087.525 4.457-7.841 9.396-15.603 14.816-23.276-7.938-3.061-16.095-5.931-24.446-8.6l.248-.235c8.942-8.455 18.503-16.608 28.628-24.426-1.775 11.001-2.958 21.946-3.563 32.814 10.537-1.508 21.006-2.625 31.365-3.362-.082.112-.179.212-.261.324-6.947 8.455-13.234 17.066-18.874 25.789 6.424.759 12.738 1.664 18.943 2.714l-.33.458a388.84 388.84 0 0 0-18.682-2.67c1.1 9.729 2.6 19.367 4.512 28.894v.012zm-31.338-28.973c8.873-.446 17.622-.603 26.234-.469 5.572-8.633 11.776-17.155 18.613-25.521-10.028.738-20.154 1.832-30.347 3.306a282.92 282.92 0 0 0-14.514 22.684h.014zm-9.534-31.641c8.007 2.58 15.835 5.35 23.456 8.298.564-10.32 1.651-20.718 3.26-31.172-9.423 7.338-18.338 14.978-26.729 22.874h.013zM372.64 96.399l-.385-.357c16.77-5.205 34.076-9.65 51.795-13.291-7.071-5.763-14.445-11.404-22.135-16.899l.867-.268c7.855 5.64 15.394 11.426 22.602 17.345-18.063 3.675-35.685 8.176-52.757 13.458l.013.011z"/><path d="M424.94 83.041l-.413-.38c18.751-4.657 38.093-8.421 57.931-11.214.123.134.233.279.357.413-19.81 2.781-39.152 6.523-57.889 11.169l.014.011z"/><path d="M495.03 123.27c-14.389-4.21-29.274-7.84-44.558-10.822 0-.045-.014-.09-.028-.134l-3.797-19.836c-7.071-3.228-14.32-6.322-21.763-9.281-10.152 10.32-19.452 20.908-27.857 31.698l-.812-.112c8.543-10.99 18.008-21.791 28.367-32.301 7.69 3.038 15.173 6.232 22.464 9.561 11.212-7.26 23.084-14.196 35.589-20.741 10.304 5.808 20.168 11.861 29.55 18.149 16.825 7.204 32.741 15.134 47.695 23.678-22.396 1.999-44.049 5.383-64.767 9.974l-.083.167zm-43.719-11.124c14.789 2.915 29.178 6.422 43.141 10.477a589.31 589.31 0 0 1 16.784-32.815c-21.406-.257-42.674.67-63.626 2.748l3.701 19.59zm60.819-22.148c-5.97 10.778-11.556 21.634-16.756 32.569 20.14-4.446 41.161-7.752 62.883-9.751-14.5-8.209-29.894-15.848-46.127-22.818zm-29.481-17.993c-12.092 6.344-23.593 13.045-34.474 20.059 20.69-2.022 41.683-2.926 62.799-2.692-9.01-6.009-18.461-11.806-28.325-17.368z"/><path d="M512.22 89.753l-.756-.302a449.63 449.63 0 0 1 15.971-8.745l.771.324a481.27 481.27 0 0 0-15.986 8.723zm-39.64 78.497l-.619-.246a334.08 334.08 0 0 1 18.021-14.609c-8.515-5.428-17.471-10.644-26.853-15.592.096-.056.193-.1.289-.156 9.795-5.216 20.058-10.142 30.76-14.743-14.431-10.767-30.265-20.953-47.433-30.368l.715-.279c17.32 9.538 33.292 19.859 47.846 30.759-.096.034-.178.079-.275.112-10.703 4.579-20.965 9.483-30.746 14.676 9.341 4.948 18.241 10.164 26.702 15.592-6.425 4.825-12.56 9.784-18.407 14.855z"/><path d="M463.81 138l-.207-.413c23.153-3.027 46.98-4.468 71.165-4.211-13.056-3.92-26.469-7.338-40.157-10.231.083-.134.179-.268.262-.402 14.706 3.105 29.068 6.825 43.031 11.113-.495 0-1.004-.011-1.499-.022-24.666-.346-48.975 1.083-72.581 4.166h-.014z"/><path d="M505.19 169.47a309.64 309.64 0 0 0-15.187-16.128l.22-.112c14.307-7.271 29.618-13.916 45.852-19.791.178.123.357.257.55.38-16.151 5.83-31.393 12.42-45.632 19.635a308.07 308.07 0 0 1 14.872 15.848l-.647.168h-.028zM483.75 54.705l-.95-.201c3.247-3.139 6.576-6.243 9.974-9.326a650.26 650.26 0 0 0-70.091-2.759c3.879 2.714 7.676 5.45 11.391 8.232l-.908.223a481.96 481.96 0 0 0-12.34-8.857 653.49 653.49 0 0 1 73.461 2.87 481.17 481.17 0 0 0-10.551 9.806l.014.011z"/><path d="M540.82 50.718l-.344-.056c-15.71-2.39-31.572-4.211-47.516-5.45l2.765-14.765a672.83 672.83 0 0 1 69.307 5.964c-.151.089-.316.167-.468.257-8.158 4.535-16.081 9.214-23.744 14.039v.011zm-46.732-5.841a653.31 653.31 0 0 1 46.182 5.316 513.89 513.89 0 0 1 22.905-13.592 675 675 0 0 0-66.446-5.685l-2.655 13.95.014.011z"/><path d="M586.37 60.145c-7.112-7.986-14.706-15.86-22.753-23.6a410.82 410.82 0 0 0-8.213-13.291h1.073a421.5 421.5 0 0 1 8.061 13.101c26.565 4.791 52.675 11.169 78.057 19.11-19.191.715-37.955 2.301-56.211 4.669l-.014.011zm-21.364-23.254c7.704 7.438 14.967 15 21.805 22.673 17.223-2.223 34.901-3.753 52.95-4.501-24.336-7.494-49.332-13.559-74.755-18.172z"/><path d="M589.27 76.585l-.055-.447c25.396 3.284 50.722 8.176 75.704 14.743-24.831-11.984-51.093-22.316-78.496-30.849l.357-.357c28.89 9.002 56.527 20.004 82.541 32.837-26.385-7.159-53.183-12.453-80.051-15.927z"/><path d="M627.18 104.64c-11.818-9.74-24.529-19.122-38.079-28.046-18.737-.056-37.199.771-55.289 2.401-.124-.145-.234-.29-.358-.436 18.297-1.664 36.979-2.502 55.949-2.435 13.455 8.846 26.07 18.15 37.818 27.811a523.04 523.04 0 0 1 39.028-12.342c-.069-.022-.138-.056-.206-.078.179-.011.344-.034.522-.045-7.648-12.208-16.26-24.292-25.821-36.187-9.259-8.097-19.04-15.994-29.344-23.667l.895-.101c10.193 7.606 19.892 15.447 29.068 23.477 21.612-1.173 43.802-1.251 66.39-.123 9.479 11.303 18.132 22.796 25.96 34.434a28.13 28.13 0 0 0 .839.391c-.207 0-.427 0-.633-.011 6.466 14.129 11.831 28.302 16.137 42.431-26.028-15.603-53.762-28.994-82.761-40.119-13.826 3.764-27.211 7.997-40.102 12.644h-.013zm41.036-12.766c28.202 10.868 55.22 23.89 80.629 38.99-4.251-13.715-9.52-27.475-15.807-41.202-22.189-.469-43.843.313-64.808 2.212h-.014zm-26.193-36.143c9.369 11.727 17.815 23.633 25.34 35.651 20.952-1.932 42.592-2.748 64.768-2.323C703.296 75.634 673.1 64.51 642.023 55.72v.011zm65.249-.346c-21.984-1.094-43.568-1.039-64.63.067 30.981 8.79 61.081 19.892 89.832 33.283-7.635-11.269-16.04-22.405-25.216-33.35h.014z"/><path d="M697.4 138.26l-.22-.391c-8.57-15.603-18.737-31.05-30.513-46.195.289 0 .578.022.867.034 11.652 15.033 21.736 30.368 30.238 45.859a534.49 534.49 0 0 1 51.684-6.399c10.098 9.404 19.59 19.132 28.449 29.162l-.646.067c-8.695-9.818-17.981-19.356-27.872-28.581-17.856 1.34-35.217 3.518-52.001 6.444h.014z"/><path d="M749.64 131.78l-.413-.592c18.888 1.798 38.079 4.613 57.449 8.544-22.947-18.864-47.998-35.863-74.769-50.874 25.354 4.97 50.832 11.649 76.103 20.182.041.101.069.201.11.29 3.88 10.064 7.264 20.138 10.139 30.19a534.7 534.7 0 0 1 54.615 24.471l.082.626c-18.2-9.449-36.731-17.703-55.426-24.84l-.083-.29c-2.889-10.052-6.273-20.116-10.152-30.168-24.102-8.119-48.383-14.542-72.581-19.411 26.454 15.022 51.203 31.988 73.874 50.796l-.784-.156c-19.617-4.032-39.056-6.925-58.192-8.757l.028-.011zm-12.56 46.01c-12.161-14.129-25.739-27.688-40.665-40.555 28.05 10.455 55.233 23.399 80.986 38.902l-.22.413c-24.941-15.033-51.258-27.654-78.386-37.941 14.252 12.431 27.252 25.51 38.931 39.103-.206.022-.426.055-.632.078h-.014zm-14.98 21.06c0-.167-.027-.335-.041-.513 5.063 1.519 10.111 3.138 15.16 4.847l2.05-6.947c.248.123.509.246.757.357l-2.188 7.316a434.55 434.55 0 0 0-15.765-5.071l.027.011z"/><path d="M741.66 209.25l-4.416-5.641.605-.089 4.416 5.651-.605.079zm-48.15 36.15l-.261-.513c6.905-.514 13.921-.849 21.006-.994-5.159-5.942-10.606-11.739-16.315-17.379l.495-.201c5.764 5.696 11.253 11.548 16.467 17.557 9.671-.67 19.521-1.016 29.508-1.027-.564 5.852-1.32 11.649-2.27 17.378a349.41 349.41 0 0 0-27.307-15.792h-.11a411.48 411.48 0 0 0-21.199.971h-.014zm50.116-1.977c-9.437.012-18.75.336-27.913.95 8.777 4.59 17.403 9.572 25.863 14.944a262.5 262.5 0 0 0 2.05-15.894z"/><path d="M721.16 279.78l-.179-.536c7.498.201 15.091.626 22.74 1.284-.413-6.801-1.128-13.648-2.146-20.528-8.777-1.162-17.485-2.022-26.069-2.58-.22-4.423-.55-8.879-1.032-13.358.22.056.454.101.674.156.44 4.256.771 8.5.977 12.711a382.58 382.58 0 0 1 26.014 2.591 237.5 237.5 0 0 1 2.242 21.6c-7.813-.692-15.559-1.139-23.221-1.362v.022z"/><path d="M715.63 257.35l.33-.335c9.822 7.305 19.232 15.156 28.16 23.555 6.824 1.084 13.702 2.368 20.594 3.865-7.415-8.79-15.311-17.156-23.661-25.097a374.97 374.97 0 0 1 18.145 4.032c.027.19.069.38.096.57-5.571-1.385-11.129-2.636-16.659-3.753 8.268 7.952 16.109 16.318 23.441 25.108-7.415-1.642-14.788-3.038-22.121-4.211-8.983-8.466-18.448-16.374-28.339-23.734h.014z"/><path d="M750.23 292.77c-2.036-3.999-4.196-7.964-6.452-11.884.179-.034.358-.067.551-.089 2.256 3.931 4.416 7.896 6.452 11.906-.179.022-.372.044-.551.078v-.011zM538.08 166.22l-.578-.335c4.004-2.402 8.103-4.758 12.271-7.059l-5.695-5.607.66-.167 5.985 5.919c-4.306 2.357-8.53 4.769-12.657 7.238l.014.011z"/><path d="M550.49 159.1l-.454-.402 10.647-3.194.454.413c-3.59 1.016-7.139 2.077-10.647 3.183zm223.92 97.37l-.275-.615 7.827.391c-.041-3.607-.151-7.226-.344-10.856a18.61 18.61 0 0 1 .702.279c.193 3.764.303 7.506.33 11.236l-8.24-.435z"/><path d="M782.1 256.72l.413-.268c3.797 3.954 7.497 8.008 11.101 12.152-.137.089-.288.168-.426.257-3.604-4.132-7.291-8.176-11.088-12.129v-.012zM114.26 169.6c.743.637.055 2.178-1.541 3.44s-3.494 1.798-4.25 1.162c-.757-.626-.083-2.19 1.527-3.463s3.521-1.787 4.264-1.139zm50.52-41.3c.632.726-.303 2.145-2.078 3.183-1.774 1.05-3.728 1.329-4.374.615s.275-2.156 2.063-3.217 3.756-1.318 4.389-.592v.011zm-17.5 33.97c.701.681-.055 2.133-1.665 3.261s-3.494 1.508-4.196.849c-.715-.67.028-2.144 1.651-3.283s3.522-1.497 4.224-.827h-.014zm-16.33 38.4c.771.625.221 2.1-1.21 3.317s-3.219 1.709-4.003 1.106c-.785-.615-.262-2.111 1.183-3.329 1.444-1.228 3.246-1.708 4.03-1.083v-.011zm118.38-34.14c.537.77-.289 1.976-1.843 2.702s-3.247.715-3.811-.044c-.55-.76.261-1.988 1.83-2.726s3.274-.703 3.81.068h.014zm79.9-23.01c.33.837-.73 1.865-2.38 2.3s-3.261.123-3.618-.714.701-1.877 2.366-2.324 3.288-.111 3.618.726l.014.012zm-55.45 31.7c.495.782-.316 1.932-1.816 2.569s-3.123.536-3.645-.246.288-1.943 1.802-2.591 3.15-.525 3.645.257l.014.011zm-15.29 22.96c.564.76-.11 1.921-1.499 2.625s-2.985.67-3.563-.078.082-1.933 1.485-2.647c1.404-.704 3.013-.659 3.577.089v.011zm45.44-25.9c.427.816-.454 1.888-1.953 2.424-1.5.525-3.082.313-3.522-.491s.426-1.899 1.953-2.435 3.109-.302 3.536.514l-.014-.012zm-18.41 25.74c.509.782-.206 1.887-1.582 2.49s-2.916.47-3.439-.312c-.523-.771.179-1.899 1.582-2.513 1.403-.603 2.944-.458 3.453.324l-.014.011zm18.67 3.05c.468.804-.261 1.865-1.623 2.401-1.362.525-2.848.324-3.329-.469s.234-1.876 1.609-2.412 2.876-.313 3.343.48zm-14.84 26.45c.551.771-.013 1.854-1.251 2.446-1.225.592-2.683.458-3.233-.302-.564-.759 0-1.865 1.238-2.457 1.252-.592 2.71-.458 3.246.313zm39.36-57.16c.358.827-.564 1.854-2.077 2.29s-3.041.134-3.426-.692.537-1.866 2.064-2.312 3.068-.123 3.425.714h.014zm-51.39-27.4c.454.804-.536 1.955-2.201 2.569-1.664.625-3.384.491-3.852-.302s.509-1.965 2.188-2.591 3.411-.48 3.852.324h.013zm150.96-60.154c.069.882-1.458 1.664-3.398 1.765s-3.591-.514-3.673-1.396 1.431-1.686 3.398-1.787 3.604.536 3.673 1.418zM399.86 114.5c.138.871-1.183 1.731-2.971 1.921s-3.357-.347-3.522-1.218 1.169-1.753 2.971-1.943c1.803-.201 3.385.357 3.522 1.24zm51.28-22.2c0 .882-1.513 1.608-3.412 1.631s-3.453-.659-3.48-1.541 1.499-1.631 3.412-1.653 3.48.681 3.48 1.564zm46.73 31.04c-.11.883-1.596 1.475-3.329 1.352s-3.068-.938-2.986-1.81c.083-.882 1.582-1.496 3.329-1.362 1.761.134 3.082.949 2.986 1.831v-.011zm-4.51 30.27c-.11.882-1.472 1.486-3.054 1.374s-2.793-.905-2.71-1.787 1.444-1.508 3.054-1.396c1.596.111 2.806.927 2.71 1.809zm59.73 5.87c-.276.849-1.748 1.284-3.302.972s-2.614-1.251-2.352-2.1c.247-.86 1.733-1.307 3.301-.994s2.628 1.262 2.353 2.122zm-5.79-5.8c-.247.86-1.733 1.307-3.315 1.017s-2.683-1.218-2.449-2.078 1.72-1.329 3.329-1.039c1.596.291 2.697 1.24 2.435 2.089v.011zm-6.67 12.88c-.247.86-1.664 1.329-3.178 1.061s-2.558-1.173-2.338-2.033 1.651-1.351 3.191-1.072c1.541.268 2.573 1.195 2.339 2.055l-.014-.011zm23.14-10.21c-.303.848-1.802 1.25-3.384.904-1.569-.346-2.628-1.307-2.339-2.155.275-.849 1.788-1.274 3.384-.916 1.596.346 2.628 1.329 2.339 2.178v-.011zm-55.54 13.33c-.152.871-1.486 1.441-2.986 1.273s-2.6-.994-2.462-1.865 1.472-1.463 2.985-1.295 2.614 1.016 2.463 1.887zm31.16-35.58c-.22.86-1.761 1.34-3.439 1.072s-2.889-1.172-2.683-2.032c.193-.872 1.747-1.363 3.439-1.095 1.706.268 2.903 1.195 2.683 2.055zm-64.38 34.13c-.055.882-1.321 1.541-2.82 1.486s-2.697-.805-2.655-1.687 1.293-1.564 2.82-1.508 2.71.816 2.655 1.698v.011zm-8.45-30.38c-.027.882-1.389 1.563-3.054 1.541s-2.999-.748-2.985-1.631c0-.882 1.376-1.586 3.054-1.552 1.678.022 3.013.771 2.985 1.653v-.011zm-11.84-25.57c0 .882-1.444 1.597-3.232 1.608s-3.261-.681-3.288-1.563 1.43-1.62 3.233-1.631c1.815-.011 3.287.704 3.287 1.575v.011zm60.62-22.583c-.137.871-1.788 1.418-3.7 1.24s-3.357-1.028-3.247-1.91c.124-.871 1.775-1.441 3.701-1.262 1.926.19 3.37 1.061 3.232 1.932h.014zm22.5-9.996c-.179.871-1.926 1.351-3.88 1.094-1.967-.257-3.412-1.162-3.246-2.033s1.912-1.374 3.893-1.117 3.439 1.184 3.246 2.055h-.013zm55.74-2.412c-.302.849-2.146 1.162-4.127.726-1.981-.447-3.356-1.474-3.068-2.323s2.133-1.195 4.128-.748 3.37 1.508 3.067 2.346zm-48.74-26.627c-.192.871-2.049 1.329-4.154 1.05s-3.687-1.206-3.522-2.078 2.036-1.363 4.155-1.072c2.132.279 3.7 1.229 3.521 2.1zm-47.42-5.439c-.082.882-1.885 1.474-4.017 1.351s-3.811-.927-3.742-1.809 1.871-1.497 4.031-1.374 3.824.949 3.742 1.832h-.014zm-59.84 5.082c.041.882-1.638 1.642-3.742 1.709s-3.866-.57-3.935-1.452c-.055-.882 1.624-1.664 3.742-1.731 2.132-.067 3.893.592 3.935 1.474zm63.26-19.222c-.096.882-1.953 1.463-4.168 1.329s-3.948-.949-3.866-1.82c.069-.882 1.94-1.497 4.169-1.351 2.228.134 3.962.972 3.865 1.854v-.011zM425.66 42.04c.069.882-1.623 1.675-3.783 1.787s-3.962-.503-4.045-1.374c-.082-.882 1.61-1.698 3.784-1.809s3.989.525 4.044 1.407v-.011zm164.6 18.842c-.289.849-2.188 1.184-4.238.748-2.063-.436-3.521-1.463-3.26-2.312s2.174-1.206 4.251-.771 3.536 1.485 3.247 2.334zM568.08 37.17c-.22.86-2.174 1.262-4.361.905s-3.783-1.329-3.577-2.2c.206-.86 2.16-1.284 4.361-.927s3.797 1.363 3.577 2.223zm76.76 19.535c-.385.827-2.38.983-4.471.38-2.091-.614-3.494-1.765-3.137-2.602.372-.827 2.38-1.016 4.485-.402s3.508 1.798 3.123 2.625zm25.54 36.622c-.468.793-2.38.871-4.292.168s-3.096-1.91-2.655-2.714 2.366-.894 4.292-.19 3.109 1.932 2.641 2.736h.014zm66.46-2.256c-.564.748-2.586.592-4.526-.335-1.926-.927-3.068-2.29-2.504-3.049.551-.76 2.587-.626 4.54.313s3.068 2.323 2.49 3.071zm73.89 51.349c-.729.659-2.683.201-4.375-1.017-1.692-1.206-2.49-2.725-1.788-3.384.715-.67 2.682-.234 4.388.994 1.706 1.218 2.49 2.759 1.761 3.407h.014zm65.04 24.6c-.825.581-2.765-.157-4.347-1.62-1.582-1.474-2.228-3.127-1.417-3.719s2.779.123 4.375 1.597c1.596 1.486 2.229 3.161 1.403 3.742h-.014zm-123.2-33.72c-.647.715-2.545.48-4.279-.514-1.719-.994-2.627-2.379-1.994-3.094.619-.726 2.545-.502 4.292.503 1.733 1.005 2.627 2.401 1.981 3.116v-.011zm27.95 29.03c-.716.659-2.573.301-4.155-.804s-2.311-2.536-1.61-3.206 2.573-.324 4.183.782c1.595 1.117 2.311 2.569 1.595 3.228h-.013zm30.5-50.97c-.688.681-2.738.246-4.581-.949-1.843-1.206-2.807-2.725-2.132-3.418s2.737-.279 4.608.927 2.807 2.759 2.119 3.44h-.014zm10.26 30.63c-.742.648-2.71.146-4.402-1.094-1.692-1.251-2.503-2.781-1.774-3.44s2.71-.179 4.416 1.072c1.705 1.262 2.49 2.815 1.747 3.462h.013zM616.16 32.055c-.316.849-2.352 1.095-4.567.581s-3.77-1.608-3.481-2.457 2.353-1.128 4.581-.603c2.229.514 3.783 1.642 3.467 2.479zm95.62 24.795c-.495.782-2.586.726-4.691-.112s-3.426-2.145-2.944-2.937 2.586-.76 4.705.089 3.425 2.178 2.93 2.971v-.011zM560.03 23.868c-.206.86-2.187 1.285-4.443.961-2.243-.335-3.921-1.285-3.742-2.156s2.173-1.318 4.443-.983 3.935 1.318 3.728 2.178h.014zm-72.97 30.916c-.069.882-1.816 1.508-3.893 1.419-2.091-.089-3.742-.871-3.701-1.742.041-.882 1.788-1.53 3.893-1.441s3.756.894 3.687 1.776l.014-.011zm75.58 58.856c-.261.86-1.912 1.262-3.714.927-1.789-.335-3.04-1.307-2.807-2.156.248-.86 1.899-1.284 3.715-.938 1.802.346 3.054 1.329 2.806 2.178v-.011zm67.89-8.32c-.399.815-2.215 1.016-4.058.447s-3.027-1.687-2.641-2.513 2.201-1.039 4.058-.469 3.04 1.708 2.641 2.524v.011zm70.33 34.7c-.564.748-2.38.692-4.058-.112-1.678-.815-2.6-2.077-2.05-2.837s2.38-.726 4.072.101c1.692.815 2.6 2.099 2.036 2.848zm79.11 38.37c-.743.648-2.545.268-4.058-.838-1.499-1.106-2.146-2.524-1.417-3.183s2.545-.301 4.072.815c1.513 1.117 2.146 2.558 1.403 3.206zm-39.51 1.04c-.688.682-2.449.447-3.935-.513s-2.159-2.29-1.485-2.994c.674-.692 2.448-.48 3.948.492s2.16 2.323 1.472 3.004v.011zm-15.98 20.93c-.701.681-2.366.492-3.741-.424-1.376-.905-1.954-2.189-1.28-2.882s2.366-.514 3.756.402 1.953 2.223 1.265 2.904zm20.63 11.2c-.743.648-2.408.358-3.742-.625s-1.83-2.312-1.101-2.971 2.408-.391 3.756.614c1.348.994 1.83 2.346 1.087 2.982zm-2.91-13.36c-.715.659-2.421.403-3.811-.569s-1.967-2.301-1.265-2.971 2.421-.436 3.838.547c1.403.983 1.967 2.323 1.252 2.993h-.014zm-2.59 6.6c-.729.659-2.407.402-3.769-.558s-1.899-2.279-1.183-2.949 2.407-.435 3.783.548c1.375.971 1.898 2.312 1.169 2.97v-.011zm36.36 53.69c-.853.548-2.435.067-3.535-1.061s-1.321-2.49-.482-3.049 2.435-.089 3.549 1.05 1.321 2.524.468 3.06zm-30.25-13.87c-.798.604-2.38.269-3.549-.737s-1.486-2.3-.702-2.915 2.38-.29 3.563.726 1.472 2.334.674 2.938l.014-.012zm-28.76 1.11c-.757.637-2.297.413-3.453-.48s-1.486-2.133-.743-2.781 2.298-.436 3.467.469 1.486 2.156.729 2.792zm.9 13.04c-.784.615-2.297.369-3.384-.536s-1.348-2.133-.578-2.758 2.298-.391 3.398.513c1.101.916 1.349 2.156.564 2.77v.011zm-22.36-12.08c-.729.659-2.228.525-3.37-.291s-1.486-2.01-.784-2.68c.715-.67 2.229-.548 3.384.279s1.5 2.033.77 2.692zm5.12-18.96c-.701.67-2.27.547-3.508-.279s-1.692-2.044-1.004-2.725 2.27-.57 3.508.268c1.252.837 1.692 2.066.99 2.747l.014-.011z"/><path d="M795.3 270.94c-.894.503-2.448-.078-3.507-1.295-1.046-1.218-1.197-2.614-.317-3.127s2.463.044 3.522 1.273 1.183 2.647.289 3.149h.013zm-35.03-5.59c-.853.547-2.394.123-3.453-.949s-1.252-2.391-.427-2.949c.84-.57 2.394-.156 3.481.938 1.073 1.084 1.252 2.424.399 2.971v-.011zm-16.45-3.74c-.826.581-2.353.224-3.439-.781-1.073-1.006-1.307-2.29-.496-2.882s2.367-.246 3.453.771 1.307 2.312.482 2.892zm2.21 20.97c-.866.536-2.352.134-3.315-.894-.977-1.027-1.087-2.301-.234-2.848s2.352-.156 3.343.882 1.087 2.323.22 2.86h-.014zm-22.98-1.5c-.839.569-2.298.268-3.274-.67s-1.115-2.156-.289-2.737 2.297-.29 3.288.659 1.114 2.178.275 2.748zm29.12 13.59c-.894.503-2.352.056-3.26-1.005-.922-1.061-.963-2.334-.083-2.848.881-.525 2.353-.078 3.288.994s.949 2.357.055 2.871v-.012zm16-7.27c-.894.503-2.38 0-3.343-1.116s-1.032-2.435-.151-2.949 2.393-.022 3.356 1.106c.977 1.128 1.018 2.468.124 2.971l.014-.012zm15.9-39.75c-.839.559-2.462.056-3.618-1.094s-1.431-2.547-.605-3.105c.839-.57 2.462-.09 3.645 1.072 1.17 1.161 1.431 2.569.578 3.127zm.23 11.05c-.867.537-2.449.023-3.549-1.139s-1.321-2.546-.468-3.094 2.462-.055 3.577 1.129c1.114 1.172 1.32 2.568.454 3.104h-.014zM486.28 71.827c-.069.882-1.747 1.508-3.742 1.418s-3.577-.86-3.536-1.742 1.72-1.53 3.742-1.441 3.604.882 3.536 1.765zM375.91 95.863c.192.871-1.183 1.787-3.068 2.066s-3.577-.19-3.783-1.061c-.207-.86 1.155-1.809 3.054-2.077 1.898-.279 3.59.212 3.783 1.072h.014zm30.11-30.101c.11.882-1.444 1.72-3.48 1.899s-3.783-.38-3.921-1.251c-.124-.871 1.431-1.742 3.481-1.921s3.81.402 3.92 1.273zM220.16 161.77c-1.087 1.094-3.027 1.798-4.334 1.586s-1.499-1.285-.413-2.391 3.054-1.82 4.361-1.586 1.472 1.307.386 2.391zm3.54 35.14c-.922 1.072-2.669 1.787-3.934 1.597s-1.555-1.24-.633-2.323c.921-1.095 2.696-1.809 3.962-1.597s1.527 1.251.605 2.334v-.011zm-138.242 8.41c.825.57.316 2.167-1.114 3.574s-3.26 2.111-4.1 1.553-.358-2.178 1.087-3.608c1.445-1.418 3.302-2.1 4.127-1.53v.011zm-9.548-30.53c.798.604.138 2.234-1.445 3.664s-3.522 2.122-4.32 1.53c-.812-.592-.179-2.245 1.417-3.697 1.596-1.441 3.549-2.111 4.347-1.508v.011zm42.39-42.54c.688.681-.193 2.212-1.967 3.451-1.775 1.229-3.783 1.709-4.485 1.039-.715-.67.151-2.234 1.94-3.474s3.81-1.686 4.498-1.005l.014-.011zm20.37-35.371c.633.726-.44 2.223-2.38 3.362s-4.031 1.497-4.664.782c-.646-.715.413-2.234 2.366-3.384s4.059-1.486 4.678-.76zm27.72 2.413c.592.737-.495 2.166-2.407 3.194s-3.962 1.284-4.568.558c-.605-.737.454-2.189 2.394-3.228s3.989-1.273 4.581-.525zm83.3-32.133c.426.815-.895 2.044-2.958 2.759-2.05.715-4.072.659-4.512-.156-.441-.804.866-2.055 2.944-2.781 2.063-.726 4.099-.637 4.526.179zm36.16-48.809c.317.838-1.279 1.988-3.563 2.569-2.297.581-4.429.391-4.759-.447-.344-.838 1.251-2.01 3.563-2.602s4.443-.369 4.773.469l-.014.011zm-127.11 101.6c.633.726-.344 2.156-2.16 3.228s-3.797 1.374-4.443.659.316-2.178 2.146-3.25 3.838-1.352 4.457-.626v-.011zm30.98 1.34c.578.749-.413 2.111-2.215 3.061s-3.728 1.128-4.334.391.386-2.123 2.202-3.083 3.769-1.117 4.347-.369zm19.45-18.59c.536.771-.578 2.089-2.463 2.96s-3.851.972-4.402.201c-.55-.76.551-2.111 2.449-2.982 1.898-.883 3.879-.95 4.402-.179h.014zm-6.7-21.536c.523.782-.688 2.122-2.682 3.004-1.995.894-4.045 1.005-4.568.235-.536-.771.661-2.133 2.669-3.038s4.072-.983 4.581-.212v.011zm85.07-36.008c.344.838-1.142 1.977-3.288 2.558-2.159.581-4.182.391-4.539-.447s1.114-1.999 3.287-2.58 4.21-.369 4.554.469h-.014zm92.6-37.662c.151.871-1.624 1.787-3.962 2.044s-4.361-.212-4.526-1.095c-.165-.871 1.609-1.809 3.962-2.066 2.352-.268 4.374.246 4.526 1.117zm-50.54 10.89c.248.86-1.417 1.899-3.701 2.334s-4.347.101-4.608-.748c-.261-.86 1.389-1.921 3.687-2.357s4.374-.078 4.622.782v-.011zM48.067 177.72c.825.581.193 2.289-1.389 3.842s-3.535 2.368-4.375 1.809-.234-2.301 1.376-3.864c1.596-1.564 3.577-2.357 4.402-1.776l-.014-.011zm35.327-47.87c.729.659-.151 2.278-1.953 3.652s-3.852 1.977-4.609 1.34c-.743-.636.11-2.3 1.926-3.685s3.893-1.966 4.622-1.318l.014.011zM19.59 191c.949.446.495 2.178-1.004 3.886-1.486 1.709-3.467 2.759-4.416 2.335s-.523-2.189.977-3.909c1.499-1.732 3.494-2.748 4.443-2.312zm182.91-41.27l-8.062 4.446-3.439 1.675-1.83 1.061-.853-.972c-2.008.145-5.076.637-6.163 1.285l-1.073.636-3.439 2-1.348.826-.633 1.117-3.563 2.189c-.124.045-1.197.436-1.678.123-.33-.223-.262-.681.234-1.363l2.201-3.06a497.1 497.1 0 0 1 11.5-6.914l6.164-2.2 3.741-.335 4.829-2.167 2.586.648.812 1.005h.014zm-12.34 5.551l.344-.201 3.439-1.675 6.328-3.507-.165-.201-1.609-.358-4.458 2.022-4.072.38-5.447 1.988-10.483 6.333-1.912 2.647c-.179.245-.193.346-.193.368l.028-.022 2.393-1.508.633-1.117 2.036-1.262 3.948-2.301.317.369.234-.704c2.256-1.351 6.947-1.72 7.869-1.776.096 0 .192-.011.288-.022l.468.536.014.011zm-.37-7.181l-4.333 2.479-2.325-1.496.908-1.464-.894-.268-.963-1.105 6.479-4.032 2.628 1.396-2.201 1.619-.193.771.908 2.1h-.014zm-3.549.96l1.527-.871-.647-1.631.331-1.329 1.43-1.061-.908-.48-3.604 2.234.344.391 1.389.335-1.031 1.642 1.155.748.014.022zm11.169-4.42l-3.962 2.167-1.445-1.932 3.866-2.111 1.527 1.876h.014zm-2.862.514l.619-.335-.357-.436-.592.324.33.458v-.011z"/><path d="M199.32 145.55l-4.581 2.502-1.183-1.418 4.608-2.513 1.156 1.429zm3.95.7l-4.718 2.155-1.871.157.66-1.676 4.54-2.379 1.389 1.743zm-4.512 1.061l2.201-1.017-.165-.201-2.009 1.05c-.027.056-.041.112-.068.168h.041zm-.868 9.009l-7.841 4.501-1.761-1.988 7.896-4.535 1.706 2.011v.011zm-6.878 2.87l4.677-2.68-.509-.592-4.691 2.692.509.592.014-.012zm17.908-8.88l-1.458.38-6.892 3.73-1.266-1.519 4.732-2.568-.357-1.598 8.887-4.825 4.98-1.183.605 1.474-4.609 3.183-2.38 1.463-2.242 1.474v-.011zm-7.346 2.502l5.695-3.06 1.28-.335 1.774-1.162 2.325-1.429 3.563-2.469-.137-.324-3.316.793-7.222 3.909.358 1.62-4.403 2.368.069.089h.014zm26.946-11.702l-3.343 1.564-4.774 1.563-1.815-1.586 6.08-2.848.605.838 2.188-1.028 1.073 1.508-.014-.011zm-3.536.67l1.335-.648-1.431.682c.028 0 .069-.023.096-.034zm-3.508 1.139l2.587-.837-.551-.76-2.517 1.184.481.424v-.011zm59.594 10.131l-.426.111c-.083.023-2.064.559-3.825.414l-.688-.056 2.614-3.485.647-.045c.096 0 2.462-.167 3.136 1.039.028.056.055.112.097.168l-1.555 1.865v-.011zm-2.724-.436c.674-.022 1.321-.145 1.72-.223l.77-.927c-.289-.324-.825-.447-1.252-.481l-1.238 1.631zm8.234-.564c-.881.312-1.968.402-3.247.279l-.633-.067.275-.425c.097-.145.963-1.463 2.642-1.954.921-.268 1.802-.212 2.613.167l.207.101c0 .056-.014.123-.028.179 0 .089-.137.904-1.348 1.519-.151.078-.316.145-.495.212l.014-.011zm-1.706-.637c.619 0 1.114-.056 1.417-.201.234-.112.357-.29.412-.424-.261-.09-.564-.135-.839-.056-.344.1-.715.402-.99.681zM16.439 219.56l-1.899 1.005-1.073-1.374.578-.704c.096-.123.33-.402 1.912-1.776l.564-.491 1.169.659-.991 1.631-.261 1.061v-.011z"/><path d="M19.411 214.61l-2.6 2.993-1.458-.425.99-2.289 2.119-1.586.495 1.05.454.257zm40.101-39.17l-5.654 5.328-2.174-1.519 3.659-3.474 4.155-.335h.014zm-4.897 3.284l1.623-1.53-1.073.089-1.101 1.05.564.391h-.014z"/><path d="M61.328 177.74l-4.127 3.887-2.669-.212.88-2.379 4.044-2.647 1.871 1.351zm-3.783 2.245l1.431-1.351-.55-.391-1.706 1.117-.206.547 1.018.078h.014zM246.96 144.49l-5.145 2.268-.454-.659c-.44 0-.894 0-1.348-.012l-.977-1.429.701-.927-.522-.76 1.031-1.228-.33-.693.633-.804-.468-.692-.853-.19-2.778.692-1.018-1.485 5.777-2.558 1.335.625 1.073.905 1.362.022.729 1.553-1.775.983.564.86-.646.838-.853.502.426.637-.522.67.674.536 2.407-1.05.922 1.407.055-.011zm-5.517.547h.729l-1.169-.927.592-.804-.688.905.55.804-.014.022zm.33-4.367l.344.726-.605.704 1.169-.726-.66-.994-.234.302-.014-.012zm-3.989-1.898l2.201-.548 1.651.38.812 1.218c-.028.044-.069.078-.097.122l1.417-.781-.261-.559c-.385 0-.771-.011-1.169-.022l-1.239-1.061-.522-.235-2.917 1.285c.041.067.096.134.138.201h-.014zm14.176.758l-4.623 1.955-1.417-2.156 4.65-1.966 1.376 2.178.014-.011zm-3.467.48l1.321-.558-.413-.637-1.321.559.413.636z"/><path d="M235.54 139.62l-2.339 1.061-2.036.011-1.197-1.151 2.641-1.206-.068-.815 4.168-1.865.784 1.887-1.527.782-.413 1.296h-.013zm-2.16 0l.646-.291c0-.022.014-.045.028-.067h-1.321l-.371.168.179.178h.853l-.014.012zm.977-1.933c0 .157.027.324.041.481 0-.023.014-.056.027-.079l1.087-.558-.124-.302-1.018.458h-.013z"/><path d="M242.23 135.7l-4.567 1.999-1.403-2.077 4.595-2.01 1.375 2.088zm-3.398.503l1.225-.536-.372-.57-1.224.536.371.57zm-5.932 2.057l-2.27 1.039-2.297.48-1.211-1.709 4.279-1.966 1.499 2.167v-.011zm-2.393.112l.206-.09-.454-.659-.922.425.358.502.825-.167-.013-.011zm10.033-55.7l-.798-1.407 8.337-7.975 4.086-1.407.784 1.485-.798.748.757.034 2.283-.614 2.421-.492 2.944.804-.041 1.72-3.879 1.296c-5.393 1.854-10.758 3.786-16.082 5.808h-.014zm1.335-1.798a2.73 2.73 0 0 1 .151.279l16.467-5.864v-.626l-1.899-.514-1.485.302-2.793.76-2.999-.134 1.444-1.374-.192-.357-1.266.436-.825.782-6.631 6.299.028.011z"/><path d="M318.15 232.97l-4.608 1.865-.578-.915-2.793 1.172-1.348-2.099-2.82 1.206-.234-.358-2.462 1.084-1.789-.291-1.086-.659-1.238.559-3.55-.436-1.265-1.787-2.463-.268-.77-1.072-5.228-.503.963-1.932-1.197-1.642-1.265-.111-1.032-1.419-4.554-.357-.495-.659-1.444-.101-1.472-1.954-1.802-.112-2.408-3.161.702-1.362-2.201-2.915-1.94-.09-1.747-2.289-2.256-1.017-4.994-6.489c-.413 0-.825-.022-1.252-.033l-1.623-2.089.853-1.53-2.573-2.346-2.339-.837-2.421-.056c-.027.022-3.81-1.296-14.761 1.798-.11.011-.206.034-.316.045-.11 0-2.765-.034-6.039-1.754-1.252.201-5.82.871-7.594-1.105 0 0-4.884-2.815-10.345-.827a10.43 10.43 0 0 1-.537.19l-1.114-1.195c-.55.112-1.431.223-1.981-.112-.399-.234-.55-.625-.482-1.184l.537-2.87-2.531.234-1.734-1.954c0-.168-.179-4.189 3.371-10.767l-3.068-3.474-1.142.101-1.788-2.01c-.826.201-2.765.804-3.66 2.133l1.073 1.195-3.521 2.111-3.481 1.385-4.677 2.446-7.58 1.038-1.238-1.239-3.536.536-1.073-1.05-2.173.346-4.747 3.239-4.925 2.122-7.703 1.508-2.174 1.631-.825 1.965-4.513 3.418c-5.282 2.267-22.423 10.778-24.102 9.617l-1.169-.894.633-1.809-1.555-.849c-2.256.156-8.171.905-10.647 2.357l-.523.301-1.252-.927-6.053 1.083-5.035-1.976-2.463.848c-.096.101-.193.224-.248.335-.083.224.055.38.192.481l1.101.782c1.266-.056 5.833-.146 6.686.48l2.861 2.066 2.449-.759 4.292.145-3.811 3.507-5.186 1.742-1.582-1.106-3.976 1.385-3.013-2.077c.083-.246.151-.503.234-.748l-4.086.636-3.205-2.2c-.014.022-1.623-.257-6.837 2.736-.124.067-.248.146-.358.213l-9.795-2.29-1.472-.938-1.72-2.044 1.334-4.334-.894-2.044 1.995-6.053.179-3.92-.22-3.128 4.168-3.887.839-2.2c.289-.603.591-1.195.894-1.798l-.55-.268-1.197 1.095.11 1.909-3.549 3.284-4.911 1.843-1.362-1.821 2.641-2.49-4.705-3.373 1.293-3.407-4.141.413.715-1.865-2.875 1.084-4.65 3.685-5.42 2.178-4.842 4.769-5.792 4.412-2.848 3.742-2.187 3.909-6.163 6.779-4.086 7.338 1.224-.614 1.733 1.005-2.242 3.027-.344 1.351-4.636 5.574-1.156-.626c-.055.067-.11.123-.151.19-2.476 4.624-4.856 9.293-7.167 14.006l-4.719 7.003-1.83-.882.371-.682c3.659-6.735 7.924-14.363 8.309-15.714-.096-.045-.193-.101-.275-.146-1.032 1.05-2.641 2.737-3.233 3.496l-.509.648-3.164.101 2.132-4.133-3.274-1.709a457.04 457.04 0 0 1 10.662-15.055l.482-1.81c-1.596 1.363-4.306 3.786-5.709 5.473-.261.302-.509.614-.757.916l-2.105-1.609.454-.67c1.692-2.557 7.291-10.353 10.276-12.576l1.555-3.105-1.802.883-1.334-.805 6.204-8.064 7.291-10.577 5.929-6.042 3.989-4.78 6.961-7.148 8.35-5.641 5.929-5.126 7.979-5.618 7.181-4.624 7.704-5.584 9.011-8.522 4.595-3.295 3.302-3.161 7.223-3.965 8.157-5.082 8.475-3.205 3.095-.592 9.148-5.54 1.967-.335 2.023-2.826 10.414-5.853 6.892-2.558 6.947-4.657c.151-.022.316-.034.468-.056l-.95-1.229.331-.324c1.513-1.485 5.516-4.389 9.616-4.769.302-.034.605-.056.894-.078l-.949 1.128a12.03 12.03 0 0 1 .632-.056l1.362-1.597c-.178-.235-.344-.469-.522-.715l-2.339.223 6.191-5.394 5.2-2.424 1.65 2.368c.276.067 1.486.201 4.54-1.173l1.018-.458 1.046 1.53.743-.335 4.333-4.68 11.157-4.11 1.004 1.597-4.925 5.115-10.386 4.523-.757.826c1.857-.726 4.485-1.541 7.126-1.664.124 0 .248-.011.372-.022l1.609 2.446-4.003 1.765-2.628.234-2.407 1.083-1.321 1.072-3.81 2.1-1.431-2.022 1.073-1.217c-.33-.145-1.046-.279-2.174.246l-1.499.704.99 1.385-4.608 2.859-.661.782-5.007 2.524-2.187 2.692-4.623 2.982.743.949-3.026 1.575c-4.182 3.585-7.498 7.114-7.236 7.527l.261-.033.069.056c.027.022 2.737 1.351 7.071 0 .853-.324 8.818-3.072 11.514-3.507l6.851-3.44c.055.156.124.313.179.48.124.324 1.059 2.982.096 4.926l2.958-.246 1.018-.503 2.008-2.491.014-2.502c-.289-.391-.44-1.988 7.58-6.824 1.183-1.016 2.848-2.714 2.477-3.261l-1.679-2.446c.11-.101.234-.201.344-.302.014-.011 1.83-1.675 4.196-5.584.027-.034.055-.078.096-.112l2.463-2.658 8.969-3.742c.399-.168 7.704-2.725 10.263-1.385.041.034.069.067.11.089l1.334 2.256h2.311l7.099-5.417 4.994-1.809 1.155 2.1 2.614 1.072.77 1.418 3.784 1.296 6.438-1.519 2.696 1.854-4.54 4.2-5.145 1.798-2.71 1.765-1.238.447-3.398 1.932-2.118.793-4.334 1.765-8.969 3.552c-.633.357-1.252.737-1.775 1.072l.371.614 6.37-2.558-.372 2.714-2.655 2.837c.234.168.771.346 1.968-.134l9.354-3.675.936 1.608c-.055.067-.124.134-.179.212-.083.1-1.967 2.111-8.502 4.758-2.435 1.552-4.553 3.239-4.498 3.563l.247.38-5.915 2.502-.922-1.396 3.082-2.636h-.289c-6.301 3.965-12.918 8.734-13.578 9.661l1.142 1.631-7.071 4.825-4.87 5.562-4.086 2.055-.839 2.479 1.293 1.665-4.1.323c-.041.056-.082.112-.11.157l2.435 3.082-3.755 5.35-3.233 1.765-2.476 3.708-3.453 2.602-1.239 1.933-.44 3.283 3.426 1.262 2.627 3.05.179 1.485c-.069.145-.757 1.463-2.435 2.245-1.334.625-2.696.648-4.196.089-.041-.022-.082-.056-.124-.078l-3.026-3.339-3.714.502-5.255 2.96-3.522 1.251-2.573 1.653-2.256 4.132-4.526 3.049-6.08 2.257-4.293 5.238-3.631 4.255-.124 2.904 1.568 2.982-.234 2.58 2.958 2.591 2.297.693 5.819-1.34c.647-.324 3.275-1.72 5.049-3.675l2.518-5.316-.124-2.458 7.47-5.07 3.302-.525.591 2.502-.151 3.54-1.238 2.469 1.568.524.619.604 1.678-.883.936-1.865 5.874-3.44 3.274-.436 1.101 2.19 3.356 3.518 3.673.368 3.784-1.641 8.006-4.747 2.6-.849 1.403-1.474-.179-2.793c.083-.078.152-.145.221-.223s1.774-1.742 4.03-3.038l2.298-3.675 4.058-2.144 1.403 1.765-1.018 1.586.963 1.34 1.472-.067c.069-.101.124-.201.193-.302l-1.679-1.452 1.514-2.345 5.035-2.569 3.521-.1 11.542-4.758 2.545-1.061.716-.961 3.975-1.776.785 1.173a470.85 470.85 0 0 1 15.545.558l7.827-3.105 5.916-.625 4.209 2.357 3.825.368-.069 2.223 2.669-.961 2.779 1.005 5.337-2.267 4.416.067 1.844 1.229 10.015-3.116 5.75-.894 5.297.961 5.819-.737 3.012 2.177 1.445 3.575-1.857 2.133-1.555 1.552-.261 1.374-2.834 2.915-.495 1.664 2.421 5.518-1.004 1.083 1.417 2.055-1.087 1.173 1.403 1.832-1.871 3.697-6.369 2.87-2.697 1.497-2.325 1.809-1.76 2.189 2.063 3.987-2.05 2.659 1.541 2.714a241.8 241.8 0 0 0-3.081 7.472l-6.466 2.915-2.036-.302s-.028.022-.028.034c-.027.044-.124.201.028.525l3.315.994 1.637 2.792c-.344.502-.674 1.016-1.004 1.519l-5.97 2.379c-.207.335-.468.938-.262 1.284.083.145.248.235.509.268l.262.034 1.169 1.865c-.028.056-.069.123-.096.179-.055.089-.496.882-1.61 1.362a4.43 4.43 0 0 1-2.077.324 2.07 2.07 0 0 0-.358.212c.028 0 .261.213 1.623.391a2.07 2.07 0 0 1 .234.078l1.967 1.207.798 1.351v1.162l-.536 2.289 2.903.414 2.434 2.39-.687 2.993.591.916 1.912.301c.179.268.344.548.523.816h3.316l3.659-.48 4.347-.034 2.119.748-4.444 1.72c-.11.201-.234.391-.344.592l-.014-.067zm-3.92.615l2.971-1.196c.11-.201.234-.39.344-.591l2.573-1.006-3.742.067-3.673.481-4.127.022c-.193-.313-.399-.614-.592-.927l-1.912-.29-.936-1.441.661-2.915-1.967-1.921-3.467-.481.674-2.937v-1.005l-.674-1.039-1.665-.983c-1.059-.145-2.366-.424-2.297-1.15.055-.682 1.266-1.162 1.513-1.251.083-.034.165-.056.248-.09.082 0 .151.023.234.034.481.067.908.022 1.251-.123h.014c.372-.156.619-.413.757-.581l-.784-1.239c-.468-.112-.798-.324-.977-.626-.482-.826.358-2.044.454-2.178.041-.056.083-.111.124-.179l5.97-2.378.509-.771-1.32-2.223-3.316-.983c-.027-.044-.055-.078-.069-.122-.316-.537-.316-1.028.042-1.441.399-.492 1.073-.67 1.155-.682.069-.022.138-.033.207-.055l1.926.279 5.255-2.379c.88-2.256 1.802-4.501 2.765-6.757l-1.596-2.804 2.05-2.669-2.077-3.976 2.214-2.737 2.573-1.999 2.848-1.575 5.874-2.658 1.499-2.982-1.486-1.921 1.087-1.195-1.417-2.044 1.06-1.139-2.339-5.428.646-2.022 2.711-2.803.247-1.374 1.72-1.731 1.527-1.765-1.307-3.194-2.38-1.676-5.393.693-5.282-.949-5.187.804-10.84 3.406-2.187-1.452-3.288-.044-5.764 2.457-2.889-1.039-3.838 1.396.068-2.904-3.398-.368-3.948-2.201-4.842.514-8.062 3.206a456.41 456.41 0 0 0-16.769-.57l-.496-.726-1.664.748-.743.994-3.329 1.385-12.12 5.015-3.412.101-3.7 1.887-.894 1.363 1.664 1.452-1.238 1.91-3.632.178-1.417-1.954 1.005-1.575-.592-.737-1.802.96-2.298 3.653c-.11.055-.22.122-.33.178-1.582.871-2.957 2.055-3.48 2.536l.179 2.758-2.325 2.424-3.219 1.05-7.842 4.68-4.553 1.988-4.554-.436-3.59-3.741-.936-1.821-1.94.268-4.539 2.669-.977 1.944-3.852 2.033-1.114-1.095-2.022-.614 1.527-3.083.082-3.172-.468-1.887-1.733.279-5.792 3.92c0 .704.028 1.407.042 2.1l-2.793 5.774c-2.476 2.815-6.273 4.624-6.438 4.702-.097.034-.207.067-.303.112l-6.411 1.497-2.792-.86-3.206-2.793.248-2.781-1.582-2.948.138-3.373 3.975-4.691 4.843-5.92 6.589-2.435 3.467-2.334 2.256-4.144 3.632-2.345 3.769-1.34 5.393-3.072 4.98-.659 3.233 3.586c1.375.502 2.16.268 2.449.134.481-.224.839-.704 1.004-.961l-.193-1.095-2.504-2.825-3.631-1.285.577-3.976 1.514-2.368 3.453-2.613 2.6-3.887 3.233-1.765 3.067-4.389-2.448-3.071 1.306-1.81 1.761-.145c-.027-.034-.041-.056-.068-.089l1.141-3.396 4.471-2.256 4.829-5.473 6.122-4.199-.826-1.162c-.123-.212-.853-1.117 14.872-11.202.165-.112.343-.212.509-.324l3.411-.034-3.962 3.351c.055.078.097.156.152.234l2.435-1.028c.536-1.184 3.796-3.384 5.351-4.367.11-.056.234-.112.344-.179 4.677-1.888 6.658-3.351 7.236-3.864-.096-.168-.193-.335-.303-.503l-7.401 2.926c-2.627 1.061-4.113.592-4.485.011l-.096-.156 2.848-3.06.151-1.162-5.64 2.301-.303-.48a4.57 4.57 0 0 1-1.499.279c-.413 0-.661-.123-.661-.346 0-.179-.013-.748 4.416-3.272.097-.045.179-.089.275-.134l9.094-3.596 4.347-1.765 1.981-.737 3.412-1.932.935-.335 2.724-1.765 4.829-1.698 3.425-3.194-1.665-1.139-6.176 1.474-4.692-1.664-.784-1.43-2.627-1.061-.771-1.396-2.311.838-7.814 5.964h-4.484l-1.5-2.513c-1.94-.871-7.951 1.229-8.006 1.251l-8.021 3.34-1.967 2.122c-1.953 3.194-3.549 4.959-4.223 5.629l1.403 2.077c.784 1.173-2.683 4.066-3.081 4.4-.083.056-.166.112-.234.168-7.429 4.445-6.769 5.495-6.769 5.484l.083.067c0 .034-.014.056-.028.089l-.041 2.826-2.655 3.261-2.573 1.273-5.282.447c.151-.201.316-.402.468-.592.811-1.028.577-3.016.192-4.322l-5.42 2.736-.358.034c-1.362.123-7.58 2.123-11.17 3.418-4.856 1.519-7.828.458-8.474.168-.372 0-.606-.112-.688-.324-.468-1.273 5.943-7.07 7.979-8.779l.178-.145 1.569-.826a33.57 33.57 0 0 0-.633-.793l5.516-3.574 2.298-2.837 5.007-2.535.537-.637 3.714-2.323-1.114-1.552 3.494-1.653c1.954-.916 3.371-.916 4.182-.692l3.384-3.775 10.401-4.546 4.003-4.177-.372-.603-8.254 3.049-4.251 4.591-3.604 1.62-1.059-1.541c-4.279 1.754-5.833 1.106-5.902 1.061-.041-.022-.069-.056-.11-.078l-1.183-1.686-2.559 1.195-4.058 3.518.867-.078.963 1.329-2.807 3.306-4.223.402.88-1.061c-2.586.581-4.856 2.368-5.695 3.094l.44.57 4.499-2.267.894 1.184-3.467 3.071-4.127.447-6.466 4.345-7.332 2.714-9.093 5.138-2.545 3.563-2.999.503-9.121 5.539-3.687.715-7.8 2.982-7.704 4.848-6.809 3.752-3.26 3.083-4.622 3.317-8.942 8.466-8.158 5.92-7.277 4.702-7.731 5.439-6.012 5.227-8.24 5.562-6.507 6.679-4.127 4.926-5.874 5.975-7.071 10.276-5.228 6.757c.096.056.193.111.289.178l3.26-1.563-3.247 6.433c-.22.101-.427.212-.647.324-1.101.536-5.461 5.897-8.914 10.934l.715.548c2.517-2.737 6.603-6.099 6.81-6.244l1.266-1.027-1.266 4.657c-3.425 4.613-6.755 9.304-10.015 14.062l3.095 1.642-1.94 3.708c.385 0 .77-.023 1.156-.034 1.252-1.441 3.37-3.585 3.646-3.853l.605-.603 1.087.581c.413.234.853.446-8.185 16.619l.124.067 3.315-4.892c2.339-4.769 4.76-9.505 7.264-14.185l1.692-2.055 1.156.637 2.683-3.217.303-1.217 1.568-2.133-.647-.369-2.875 1.474 5.778-10.376 5.971-6.567 2.146-3.808 3.302-4.345 6.163-4.691 5.104-5.048 5.613-2.245 4.664-3.686 5.063-1.899-.88 2.256 4.141-.391-1.486 3.831 5.145 3.72-2.848 2.669.578.771 3.412-1.274 1.94-1.798-.124-1.91 3.618-3.272 1.871.927-1.252 2.502-1.018 2.691-3.838 3.552.165 2.457-.234 4.211-1.912 5.752.88 2.044-1.321 4.222 1.444 1.753 1.321.86 9.203 2.167c5.874-3.295 7.635-2.803 7.814-2.759l3.04 2.089 4.801-.726-.385 1.24 2.325 1.63 3.99-1.374 1.568 1.117 3.921-1.306 1.155-1.073-2.283-.067-2.642.883-3.205-2.29c-.55-.402-4.196-.436-6.369-.335-.082-.022-.151-.034-.234-.056l-1.197-.838c-.55-.39-.468-.971-.303-1.384.358-.872 1.293-1.642 1.403-1.721l.248-.201 3.563-1.217 5.131 2.033 6.163-1.084 1.005.749c3.7-1.832 10.469-2.357 11.253-2.39.082.011.165.033.247.044l2.064 1.139-.66 1.877.852.659c.785.592 12.162-4.691 22.479-9.36l3.412-2.624.825-1.966 3.398-2.535 8.199-1.598 4.306-1.887 4.925-3.396 3.453-.536 1.059 1.061 3.536-.513 1.224 1.239 6.466-.871 4.32-2.245 3.48-1.396 1.637-.994-.729-.793.124-.234c1.252-2.301 4.553-3.429 6.122-3.697l.385-.067 1.829 2.077 1.142-.089 3.563 4.065-.124.235c-3.274 5.908-3.397 9.828-3.411 10.465l1.32 1.43 3.385-.302-.372.726c.633.078.303.793-.302 1.988-.427.838-.468 1.385-.138 1.586.385.223 1.224-.033 1.238-.033.165-.056.33-.112.495-.157l1.06 1.151c6.108-1.955 11.019.96 11.225 1.072 1.734 1.921 6.755.905 6.796.905.096-.023.206-.045.303-.056.069.033.124.067.192.1 2.683 1.463 4.939 1.698 5.503 1.743 10.593-2.96 14.775-1.955 15.504-1.776l2.435.067 2.655.994 2.958 2.725-.894 1.597 1.141 1.486c.413 0 .826.022 1.252.033l5.132 6.746 2.242 1.028 1.554 2.055 1.954.1 2.641 3.53-.715 1.351 1.94 2.558 1.802.111 1.472 1.955 1.444.101.495.658 4.554.38 1.032 1.419 1.265.111 1.624 2.256-.702 1.385 4.512.458.757 1.073 2.462.279 1.252 1.798 2.545.313 1.582-.715 1.61.972.935.134 3.164-1.374a5.23 5.23 0 0 1 .234.368l2.834-1.206 1.348 2.1 2.807-1.162.564.916-.11.023zm-118.6-159.74l1.252-.547-.908-1.363c-3.742.29-7.401 2.223-7.429 2.245l-1.802.972c.083.045.165.089.22.145l.193.156-1.183 1.34.591.838 1.417-.771 1.238-1.061 3.783-1.709 2.642-.234-.014-.011zm-32.645 8.421l1.665-.179 1.568-1.452-3.233 1.631zm11.735 41.426l-.207.1c-.619.313-1.568.659-2.669.57-.11 0-.206-.023-.316-.023v-.223c0-.078.028-2.089 5.296-4.948l.372-.201 3.04-.301-3.398 3.093c-.22.347-.908 1.263-2.118 1.933zm-1.266-.536a1.54 1.54 0 0 0 .619-.157c.509-.257.963-.837 1.101-1.083.068-.078.123-.157.192-.235l1.747-1.608h-.068c-2.683 1.519-3.398 2.613-3.591 3.083zm-12.23 7.695c-.082.045-.151.078-.234.123-.935.413-3.191 1.351-4.003 1.05-.193-.067-.454-.268-.151-.816.082-.804.921-6.321 6.025-10.074 0 0 1.335-1.217 3.261-2.547l-4.155 2.324-1.926.256-3.879 2.257-2.312 2.613c-.082.045-.151.101-.233.145-.22.134-1.321.816-2.215.871-.385.023-.853-.067-.867-.614.028-.078.055-.167.083-.246.151-.245 4.058-6.544 12.587-10.543 1.789-.759 5.242-1.619 6.026.223.013.045.041.101.055.146l-.729 1.027c.371-.212.825-.435 1.238-.636l6.328-3.362 4.98-.492-1.665 2.268-2.737 1.842-1.018 2.469-2.669 1.463-3.605.413 1.197-1.731c-.096-.112-.179-.223-.275-.324l-2.792 1.553-2.036 1.474-1.28 1.72-.674 2.088.124.994c-.179.95-.743 3.038-2.449 4.044v.022zm8.02-13.135c-2.778 1.53-5.2 3.708-5.227 3.731-4.76 3.484-5.352 9.102-5.352 9.158-.027.078-.055.145-.082.224.124.022 1.142-.324 2.077-.726.413-.358.963-1.575 1.169-2.603l-.123-1.105.825-2.435 1.582-2.134 2.738-1.965 4.691-2.603 1.114 1.341-.715 1.016 1.224-.134.949-.525.95-2.312 2.944-1.988.536-.748-2.586.257-1.156.625-4.553 2.413a19.62 19.62 0 0 0-.991.502l-.014.011zm-16.838 8.042l.028.045c.027-.012.123-.067.233-.123l2.325-2.625 5.173-3.016 1.94-.256 4.897-2.737.289-.402c-.77-1.329-3.563-.223-3.893-.078-6.755 3.172-10.373 8.265-10.978 9.192h-.014zm33.801-11.493c-.11.056-.221.112-.331.156-.605.268-1.527.57-2.462.458-.069 0-.138-.022-.193-.022-.027-.033-.041-.078-.068-.112-.289-.458.055-1.787 3.384-3.507a4.39 4.39 0 0 1 1.087-.469c.687-.178 1.32-.145 1.884.09.097.044.193.089.303.122-.083.112-.165.224-.234.335-.151.213-1.458 1.966-3.357 2.949h-.013zm-1.239-.547c.248 0 .427-.067.564-.134.73-.335 1.555-1.162 2.037-1.743-.097-.011-.166-.011-.207-.011-.055.023-.096.056-.151.078-1.926.983-2.215 1.575-2.243 1.81z"/><path d="M133.15 98.923l-2.587.436-3.453 2.111-9.258 2.803 11.322-7.092c.027-.067.055-.145.014-.19-.042-.056-.152-.067-.276-.067l-7.676 4.668-.88-.949 1.1-.972-2.462 1.106-3.852 4.445-5.778 3.731-2.889-.592 1.61-2.457c2.861-2.882 5.777-5.73 8.735-8.545l9.245-5.585 6.589-2.926 4.017-.637 2.71-1.474 3.068-2.39 3.219-1.754 1.376.19 1.211-1.552 6.768-3.563 1.087 1.988-1.018 1.273 3.742-.692.66 1.463-4.746 3.619-5.297 3.228-7.525 3.552-1.815 1.441-3.178 2.077-1.761 1.028-2.036 2.323.014-.045zm-2.435-.726l1.788-.302 1.417-1.62 2.27-1.318 2.944-1.932 1.939-1.564 7.801-3.686 4.911-2.993 3.453-2.658c-.083-.168-.152-.346-.234-.514l-4.842.916 1.747-2.2-.454-.826-3.797 2.01-2.188 2.814-2.448-.335-1.775.972-2.903 2.301-3.893 2.122-4.251.681-5.901 2.625-8.378 5.071-8.282 8.087-.825 1.284 1.252.257 3.851-2.479 4.073-4.714 8.928-3.942-3.013 2.614 5.241-3.15.372-.067c1.1-.19 1.499.022 1.637.235.289.458-.33 1.217-.413 1.296-.069.067-.124.145-.179.212l-6.149 3.797 2.641-.782 3.66-2.233v.022zM167.19 75.1l-8.474 1.039 7.814-3.909 2.71-2.658 1.981-.849c.192-.313.564-.715 1.293-1.061l4.911-2.301-.247 2.368-1.844 2.29-3.136 2.39-4.994 2.703-.014-.011zm-2.875-.771l3.013-.357 3.934-2.122 2.518-1.954 1.417-1.832.041-.704-2.009.949a1.11 1.11 0 0 0-.096.201l-.082.402-2.628 1.117-2.628 2.58-3.466 1.709-.014.011zm19.135-8.22l-4.567 1.776-1.073-1.53 4.994-3.127 7.69-3.407 1.128 1.72-6.686 2.949-1.486 1.631v-.011zm-2.971.19l1.706-.659 1.389-1.53 5.475-2.435-.123-.19-5.448 2.424-3.247 2.055.248.346v-.011z"/><path d="M236.74 60.089l-8.79 3.217-11.405.458-1.816.715-3.343 1.955-3.7 1.519-3.508.112 1.637-1.709 7.566-3.485 2.999-1.195 2.93-2.893 7.333-2.748 2.338-.558.248-.235c-4.058-.045-8.144-.045-12.23 0l-2.118.827c-.124 0-.234 0-.358.011-.427.022-.757.145-.991.369-.082.078-.151.156-.233.234l-6.067 2.424-2.105.067-3.357 1.385-1.389 1.441-6.741 2.848c-.358.089-3.549.882-4.581.235-.371-.235-.592-.748.454-1.876.041-.045.083-.078.124-.123l5.668-4.546 2.682-1.128c.193-.19.385-.391.564-.581 5.861-2.446 11.762-4.814 17.719-7.081l6.48-.514 4.966-2.334 5.365.067 6.479-1.095 2.628 1.463 6.466.246 1.031 2.044-2.297 2.022c-.578.514-2.311 1.161-3.659 1.619l-.427.145-4.361-.134c-.921.402-1.802.86-1.967 1.039.041 0 .124.011.358.022 2.627.067 2.82.603 2.655.972l1.073 2.022-5.407 1.91 1.129.86-.042-.011zm-8.474 2.144l5.53-2.033-1.142-.86 5.875-2.1-.812-1.497c.041-.033.069-.067.11-.1-.083-.067-.426-.212-1.706-.246-1.224-.022-1.389-.369-1.307-.648.234-.849 3.041-2.044 3.907-2.39l.495-.201 4.499.134c.867-.313 1.72-.659 1.926-.782l1.747-1.553-.702-1.385-6.176-.212-2.422-1.34-6.053 1.005-4.539-.056-4.788 2.256-6.713.536c-5.407 2.066-10.772 4.211-16.109 6.433-.193.19-.386.391-.564.581l-2.917 1.229-5.145 4.121c-.413.458-.509.748-.303.882.399.257 1.94 0 2.807-.201l5.269-2.256 1.403-1.441 5.076-2.1 2.105-.056 4.402-1.754c.936-.748 2.243-1.128 3.164-1.24l2.229-.86 14.775.045-2.105 1.977-3.453.827-5.998 2.267-2.93 2.893-3.728 1.474-6.741 3.105-.165.168c.33 0 .66-.022.99-.022l2.683-1.095 3.356-1.955 2.779-1.095 11.419-.447-.028-.011z"/><path d="M211.47 51.433l-7.016 2.781-4.333 1.34-6.48 2.223-1.348-2.066 3.302-1.396 6.3-3.161 2.449-.078c5.682-2.145 11.391-4.2 17.127-6.176h3.563l-2.435 2.256-11.129 4.267v.011zm-7.14 1.876l16.935-6.601.743-.693h-1.046a624.67 624.67 0 0 0-17.086 6.188l-2.187.067-5.42 2.725-1.39.592.427.67 4.746-1.62 4.278-1.329zm.98-5.45l-5.723 1.675-1.21-1.943 8.749-3.976 7.374-2.826 1.334 2.323-3.646 1.385-6.864 3.373-.014-.011zm-3.976.212l3.536-1.028 6.727-3.295 1.623-.614-.44-.76-5.09 1.955-6.782 3.071.412.67h.014z"/><path d="M229.33 42.498l-4.76 1.709-4.017.626-10.744 4.166c-.633.235-2.518.882-3.302.603-.481-.167-.385-.603.316-1.273l.207-.201 8.667-3.73-1.775-.558 5.627-2.2.839-2.267 6.906-2.457 5.2-1.15 4.608-1.564-.179-.346-3.865.972-4.444 1.519-11.335 2.938 11.514-5.35 14.527-4.847 3.33-1.72L255 24.81l5.461-1.441 7.69-2.334 8.433-2.848.73 1.809-7.429 2.993-6.273 2.915-14.954 5.64-5.118 2.524-4.526 2.792-4.897 2.681-4.774 2.971-.013-.011zm-4.664.726l3.687-1.318 4.43-2.748 4.87-2.681 4.581-2.826 5.461-2.692 15.036-5.696 6.04-2.826 6.025-2.446-.096-.246-5.971 2.022-7.91 2.413-5.558 1.474-7.979 2.446-3.329 1.72-14.61 4.87-2.737 1.251 1.981-.503 4.402-1.508 5.792-1.452.908 1.798-7.278 2.435-5.186 1.15-4.925 1.765-.839 2.234-3.921 1.519 1.665.536-10.744 4.579v.011a11.3 11.3 0 0 0 .935-.279l11.226-4.356 4.044-.626v-.022zm70.924 1.563l-5.888 1.463-6.521.704-5.324-1.05-.784-1.809-1.21-1.832-.977-2.279 7.03-4.412 3.521-1.798-.687-1.72-3.852.156-2.49-1.631-4.925-1.05-2.71-.212c-1.514-.123-2.848.235-2.903.257l-17.485 5.272-2.27-2.435 11.804-4.322 6.039-2.312 8.405-3.842 6.865-2.881 4.457-1.128 3.508-1.351 7.209-1.463 6.906-1.15 8.859-1.899 5.42-1.642 7.126-1.541 6.576-1.586 7.002-1.675 6.782-.927 4.678-.715 5.296-1.564 9.121-.737 7.883-.726 7.69-.089 4.732.514 5.062-.994 6.906-.38-2.6 2.502-9.574.894-3.618 1.072-2.656 1.351.372 2.133-7.264 3.809-10.441 2.39-.743.413.426.101 4.788.313 1.802 1.474-4.375 1.407-1.816 1.016 1.335 1.072-5.53.782-7.085 1.53-4.251 1.072-6.548 1.095-5.159 1.675-6.149 2.379-2.573 1.329-4.333 1.419-3.618 1.15-3.701 1.094-2.806 1.273-2.917 2.044-3.632 2.055c-.11.503-.344 1.24-.88 1.631-.083.067-.289.302-.44.469-.606.704-1.238 1.43-2.477 1.72-.467.145-2.379 1.106-3.838 1.91l-.234.134-.316.078zm-5.627.525l4.994-1.273c1.637-.905 3.701-1.966 4.705-2.2.096-.078.578-.625.798-.894.261-.29.454-.525.702-.704.165-.145.385-.737.481-1.262 0-.056.014-.112.028-.179l4.113-2.334 3.136-2.178 3.357-1.497 3.797-1.128 3.535-1.128 4.114-1.351 2.366-1.251 6.356-2.457 5.791-1.865 6.755-1.128c.509-.078 2.338-.57 3.755-.972l7.429-1.597 2.628-.38-.661-.525 3.137-1.731 2.806-.916-.674-.547-4.388-.29-2.284-.491 2.6-1.463 10.442-2.412 6.231-3.284-.385-2.133 3.687-1.865 4.251-1.262 8.667-.815.743-.726-3.137.179-5.585 1.106-5.448-.581-7.03.101-7.731.726-8.584.692-5.338 1.541-4.952.759-6.562.905-6.741 1.62-6.686 1.608-7.002 1.508-5.613 1.687-9.148 1.955-6.989 1.173-6.658 1.352-3.604 1.363-4.416 1.117-6.26 2.658-8.556 3.887-6.287 2.401-9.795 3.563 1.018 1.095 5.392-1.675 10.236-2.982c.096-.022 2.256-.625 4.553-.447l2.861.235 5.393 1.184 2.187 1.441 4.224-.156 1.059 2.681-4.443 2.256-6.15 3.842.785 1.843 1.21 1.843.674 1.575 4.361.871 5.737-.614.013-.067z"/><path d="M359.1 18.641l-4.788.692-3.219-.67 3.825-2.58 3.742.581.44 1.988v-.011zm-4.058-.29l1.623-.235-.165-.737-1.004-.156-1.39.938.936.201v-.011zm14.758 8.633l-3.054.369-4.444-.123-.66-.145-4.567.871 2.173-3.228 8.034-2.089 8.103-1.329 4.251-.48h4.677c.069.011.138.034.207.045.22.056 2.173.558 1.967 1.318-.083.279-.468.692-1.885 1.095l-4.209 1.229-4.32.927-2.875.346-3.384 1.195h-.014zm-2.614-.536l1.871-.246 3.398-1.206 3.302-.391 3.755-.804 4.045-1.184c.316-.089.687-.212.715-.324.055-.19-.55-.447-.99-.57h-3.811l-3.811.436-7.759 1.262-6.809 1.765-.881 1.284 2.05-.38 1.307.302 3.646.078-.028-.022zM539.49 168.29l-2.49-2.2 1.444-5.361 4.802-1.553.344-1.228c-.551-.425-1.706-1.475-1.404-2.569.344-1.251 1.459-2.435 1.5-2.491l.22-.234 3.742.469 4.443-.536 5.517-1.564 1.884-2.1 2.27 2.055c.716.659.317 2.134.11 2.737l-.247 2.256-2.188 1.541-3.824 3.786-4.457 2.714-1.94 3.239-.468 1.519-4.636.067-4.677-.536.055-.011zm-.908-2.289l1.692 1.496 3.866.436 3.357-.056.302-1.005 2.119-3.496 4.484-2.748 3.742-3.73 1.981-1.419.22-2.066c.303-.916.358-1.876.138-2.1l-.66-.603-.922 1.028-6.108 1.698-5.021.558-2.862-.357c-.33.39-.935 1.195-1.169 2.01-.275.96 1.21 1.966 1.224 1.977l.275.19-.577 1.988-4.815 1.541-1.28 4.669.014-.011zm9.238-16.081l-3.701-.815-2.242-.402.247-.905-.949-.167.55-2.044 4.059.726-.179.625 3.48.76-1.265 2.222zm-4.127-1.776l.715.123 2.311.503.358-.637-3.192-.681-.192.681v.011zm-.702-1.072l.867.157.096-.358-.867-.156-.096.357zm37.379-1.912l.99-2.546 4.237 1.251-.715 1.764-4.512-.469zm2.256-1.262l-.234.581 1.142.123c.055-.123.096-.257.151-.391l-1.059-.313zm-4.986 24.572l-4.732-1.229 1.114-2.021 4.471 1.161-.853 2.089zm-2.806-1.642l1.651.424.178-.457-1.582-.414-.247.436v.011zm61.226-21.508l-3.054-1.106-1.582-1.821c-.316-.357-.99-1.239-.344-1.563.262-.123.771-.212 1.802.156 1.541.547 2.614.469 2.655.458l.344-.033 1.913.815-1.734 3.083v.011zm-1.953-1.653l.784.279.853-1.519c-.661-.022-1.789-.134-3.178-.614.069.134.193.29.303.424l1.238 1.43zm24.093 7.183c-.826-.346-2.05-.938-2.697-1.675-.453-.514-.55-1.028-.275-1.474l1.514-2.312 2.847-1.374.606.29c.288.134 2.806 1.374 3.645 2.48l.881 1.161-2.091 3.172-3.343.146-.276-.09-.797-.312-.014-.012zm-.028-4.624l-1.348 2.134c-.137.223-.11.435.096.67.427.48 1.514.971 2.119 1.195l2.229-.101 1.664-2.546-.564-.737c-.358-.481-1.472-1.14-2.228-1.542l-1.94.939-.028-.012zM448.29 119.92l-5.007.089-.083-2.122 5.021-.559.069 2.592zm-3.315-.805l1.568-.033-.027-.692-1.569.178.014.547h.014z"/><path d="M450.1 117.84l-3.59.045-1.403-2.267 4.938-.079.042 2.301h.013zm-2.297-.826h.55l-.014-.581-.88.011.344.57zm2.167-58.645l-2.655-1.396-.055-2.39 5.228-.212.027 2.904-2.545 1.106v-.011zm-.619-1.72l.784.413.344-.145-.027-1.619-1.128.045.027 1.307z"/><path d="M450.48 54.147c-.633 0-1.362-.033-2.202-.1l-.536-.045c-.069-.067-.124-.145-.193-.212-.206-.234-1.169-1.407.193-1.999 1.224-.525 3.893-.57 4.416-.57h1.032l.013 1.932c.069.201-.027.469-.522.693-.482.212-1.197.313-2.188.324l-.013-.022zm-1.184-.905c1.514.1 1.899-.011 1.899-.011l-.055-1.128c-.798.045-1.623.134-1.94.268-.206.089-.151.491.096.871zm56.914 14.162l-7.704-.625-5.076-1.385 2.146-.972c.165 0 .317.022.482.034l7.786.246.413.011 4.347 1.899-2.38.793h-.014zm-6.974-1.396l6.259.469.11-.034-2.036-.882-6.686-.201 2.353.648zM469 64.478l-5.035-.603.028-1.776 5.062.089-.068 2.278.013.011zm-3.012-1.251l1.045.123v-.335c-.344 0-.701-.011-1.045-.022v.235zm-35.438-3.462l-5.668-.112-.124-1.564 2.367-.112-.097-1.385 6.425-.257.137 2.401-3.081.112.055.916h-.014zm-3.219-.938l1.128.022v-.067l-1.114.045h-.014zm1.83-.782l2.338-.089-.041-.681-2.339.089.042.681z"/><path d="M438.25 57.509l-4.76.145-.11-1.865 4.787-.145.083 1.865zm-2.779-.782l.701-.022v-.145l-.701.022v.145zM406.62 42.911c-.344.022-.675.011-.991-.056-.426-.1-.867-.324-.55-.871.027-.056.069-.112.096-.167l4.719-1.53-1.293-.246-1.995-.614.729-1.888 3.494-.737-.069-.871.303-.614a95.92 95.92 0 0 1-1.788-.022l-2.545-.793-1.142-1.653-.193-1.575 2.009-1.217 3.687-.156 2.682.324 2.394.715-.055 1.407-.908.29 2.228.268 1.968.648.921 1.34 1.541.827 2.463.659 3.274.257.963 1.028.055.827-2.174.57c-.206.056-.468.145-.591.201-.055.145-.303.447-1.486.994l-.303.145-2.806.134-2.091.402-3.412.614-2.421.38-2.49.167-2.6.503c-.372.112-1.004.29-1.651.335l.028-.022zm2.283-3.931l.977.313 4.017.782-4.113 1.296.839-.145 2.531-.167 2.009-.324 5.874-1.072 2.077-.1c.316-.168.605-.335.66-.402-.055-.302.853-.626 1.61-.838l1.087-.29c0-.078 0-.156-.014-.234l-.427-.424-2.806-.246-2.985-.827-1.912-1.061-.812-1.173-1.348-.447-5.53-.547 3.37-1.117.014-.558-1.486-.436-2.022-.223-1.967.101-.922.547.137 1.24.895 1.296 1.609.503 3.384.056-.743 1.463.138 1.329-3.783.793-.358.927v-.011zm-14.643 3.037s-.124 0-.192.011c-.936.067-2.628.167-3.357-.078-.275-.089-.44-.223-.426-.38 0-.425.316-1.966.33-2.033l.124-.179.426-.346-.206-1.329 5.076-2.658 4.856-.302 4.512-.156.207 1.709-.413 1.43-1.018.514.248 1.999-5.586.402-1.169.614-3.384.782h-.028zm-1.843-.782l1.417-.045 2.559-.592 1.458-.76 4.319-.313-.192-1.474 1.155-.592.317-1.083-.124-.871-2.531.089-3.825.234-3.838 1.999.179 1.217-.605.503-.303 1.675.014.011zm76.443-5.774c-1.293-.033-4.691-.38-5.392-.447l-7.195-.223v-1.999l6.246-1.262 6.011.089 4.843-1.787-1.115-1.407 5.544-2.089-2.833-1.273-1.775-1.854 5.681-1.966c2.243-.313 4.458-.748 4.733-.938 0-.491 2.875-2.01 4.622-2.848l.619-.302.881.257a21.12 21.12 0 0 1 2.545.916c1.348.614 1.279 1.463 1.238 1.921 0 .168-.055.592-4.636 1.631l-.083 1.072 1.059 2.357 1.968.893 6.658.201 1.637.179 2.05.179c.99-.313 3.632-.011 5.654.302l.316.045 2.752 1.363-4.595.759-4.705.089-8.075-.503.261.101 4.058 1.91-3.315.894-4.485-1.039-1.829-.089c-.853.402-1.349.86-1.128.96.701.324.797.626.77.827-.069.346-.605.603-.936.726l-.591.726-3.728.938-6.521-.235c-1.142-.033-3.508.156-4.787.29-.344.324-1.087.681-2.422.648v-.011zm-10.441-1.474l5.448.19 5.007.436c.344 0 .495-.246.495-.246l.111-.257.619-.067 6.011-.369 5.806.201 2.558-.648.551-.681.261-.078c.124-.033.385-.145.399-.235 0-.011 0-.056-.179-.145-1.843-.838.826-2.033 1.376-2.267l.344-.145 3.535.212 3.467.804.413-.112-2.463-1.15c-.344-.101-2.146-.145-3.659-.078l-1.348.067.124-1.798 14.238.826 4.155-.089 1.76-.313-.481-.235c-1.486-.223-3.082-.369-3.467-.324-.866.279-2.435.067-3.81-.101l-1.307-.145-6.961-.201h-.509l-3.109-1.419-1.225-2.736.11-1.552a7.48 7.48 0 0 0 .482-.112c1.981-.447 3.921-.983 4.168-1.162 0-.257.041-.871-.674-1.195-.413-.19-.894-.357-1.279-.491-1.761.882-3.481 1.876-3.591 2.133-.027.503-2.008 1.016-5.86 1.552l-4.155 1.463 1.17 1.229 3.92 1.709-6.135 2.279 1.114 1.43-6.438 2.357-6.37-.1-4.608.927v.67l-.014-.033z"/><path d="M478.71 176.13l-3.082-.592-2.627-1.988.151-2.848-1.527-2.368-5.64-3.507-.386-5.719-1.348-3.864-2.077-3.485-3.439-1.943.055-5.83 1.761-3.485 2.338-2.826.055-2.814-1.65-2.469-2.229-1.764-.991-2.167-1.513-2.022-6.534-3.261v-3.384l2.435-2.681-.386-1.709-1.045-.647-5.021.067 3.37-1.732-3.467-.703-3.948.726-3.013-1.363c-.027-.033-.041-.067-.068-.089-.042-.045-1.128-1.374-5.256-1.218l-4.072.179-6.479 1.553-6.314 1.262-5.448.413-4.815.826-4.32.414-5.846.156-4.416-.413-8.488-2.77-1.293-2.011-3.77-1.161-4.182-1.62-2.985-.86-.275-2.524-1.059-.301-.592-2.458 2.738-3.227-.867-2.781-2.944-1.664-.289-2.29 5.75-5.953 4.664-4.713 4.746-2.267 4.031-2.457 2.173-1.497-.399-2.256 8.502-4.881 4.609-1.832 5.379-.424 4.278.257 6.975-1.541 5.901-1.474 11.033-.86 5.489.056 6.219-.112 3.232-1.419 5.902-.022v4.222l1.087 1.787 3.288 1.363 4.815.056 5.626.581 2.449 2.278 5.2.212 3.563.849 2.476-.938.152-2.144 9.946.581 6.947 1.62 6.177 1.318 5.901.938 6.15.614 5.214.894 3.398.402c1.334-.458 4.017-1.508 4.182-2.368l.357-1.72 1.569-2.01-.11-1.184-4.843-.156c.041.335.619.76.853.905l.371.223-.206.223c-.096.1-1.032 1.016-3.04 1.162-.743.056-1.94.022-3.412-.458l-.729-.234 1.733-1.966a.79.79 0 0 1 .028-.179l-3.233-.536-1.775-1.028-2.448.748-5.874-1.083-2.353.76-3.026-1.642 1.472-.48-1.252-.849.179-1.407-3.013-1.608-.303-1.028.069-.771.578-.19-1.101-.581-2.077-.156-2.284.76-3.081-.201-.894.402 1.857.949.11 3.094-4.43 1.553-6.012-2.993 3.123-1.128-.302-.145-5.448-.212-2.119-1.028.33-3.306c-.013-.011-.564-1.955-4.498-2.1l-5.393-.167-4.856-2.58-1.926-.033-3.535-1.53c-.193.1-.372.234-.413.391-.069.29.316.614 1.155.983l4.939 2.156 6.122 1.821 6.259 1.653-.096 1.809-3.164-.112-.096.748-1.775 1.742-3.013 1.173-.055 1.329-5.296-.112-4.994-1.608.014-1.474 5.131.067 2.311.223.785-.313.055-1.62c-.124-.167-.922-1.061-4.802-2.077-1.293-.033-6.039-.29-9.093-2.39l-5.998-2.468-5.282.871-10.676.268-2.655 1.229.069 1.184-2.132.972-4.224 1.173-1.857 1.731-2.985 1.474.124 1.43-2.793 1.407-4.567.737-4.939.983-4.787.38-4.361.726-4.155-1.296-3.7.38-.592-3.585 1.885-2.055-.798-5.015 6.947-.659 6.273-.301 5.09.313 3.591-.246 2.82-1.407-.867-2.993a11.84 11.84 0 0 0-6.135-1.262c-1.472.1-2.435-.011-2.848-.357-.798-.648 1.183-1.742 1.816-2.066l.289-.145 6.355-.424 4.155-1.586 2.187-.123 5.269-2.468 4.402-.179 4.65-2.323 4.499-1.955 6.287-.112 1.348-.558-.083-3.876 5.104-2.066 2.407 2.267 1.087.436 2.078-.436v-.793l-5.682-2.245-2.022.815-8.585.112-3.893-1.419-.069-2.915 2.064-2.502 6.507-.112 11.088-3.25 14.321-5.238 14.004-2.189 8.929.447c1.912.078 12.546.994 13 1.061.151.022.302.056.44.078l9.245 2.58 10.303 1.228 10.428 3.027 3.068 1.664-3.316.804-15.077-1.664-4.595-.983a.85.85 0 0 1-.027.179l3.288.994 6.396 3.317 2.147.235-1.541-2.033 5.503.614 1.788.96 2.339-.581.192-1.028 6.328.916 2.38-.558-1.087-1.966 7.003.96 2.985 1.72 7.69-.637 9.561 1.363 3.604.625 5.269.436 6.892 1.318 4.004.268 10.51 2.234 3.989 1.419 2.944.949c-.729-.436-1.995-1.117-4.168-2.167l-.495-.235 1.059-3.083 6.576.86 6.204 1.586 2.655 3.049c.041 0 .096 0 .138-.011l.509-1.329 10.138 2.133 7.856.491 8.433 2.1 3.191-1.832 9.451 2.859 5.929 1.318 6.067 2.189c2.119.089 6.383.38 7.993.938 1.197.413 5.929 1.821 7.649 2.357l.344.1 5.433 3.462 9.506 3.608 8.433 3.999-1.169 1.865-6.424-1.385c-.055.056-.097.145-.028.234.138.19.743.525 1.623.882l6.604 1.809 4.416 1.832 4.182 2.111c2.063.693 5.406 1.943 6.245 2.87.317.324 2.614 1.541 4.884 2.625l11.171 5.205 8.295 3.92a485.85 485.85 0 0 1 12.161 9.494c1.032.324 3.233 1.039 4.306 1.631a213.87 213.87 0 0 1 5.007 2.87l.234.156 2.875 2.2 2.477 1.307 2.944-.38 5.654 2.29c4.526 2.893 8.983 5.853 13.399 8.856l5.874 5.596 3.219 2.859 10.827 7.428 3.233 3.428 5.846 3.452c-.055.145-.124.301-.179.446 0 .023-.151.793 2.711 2.927 3.7 2.747 6.905 5.517 7.043 5.629l8.983 6.958a479.22 479.22 0 0 1 12.134 10.153l8.405 8.521 6.989 7.908 5.117 5.741 5.338 6.645 3.398 5.172 4.76 5.573 3.934 5.83-.399 4.155-1.1-1.151c-.798-.882-7.842-8.153-9.204-11.571l-3.136-3.272-.454-1.463-2.366.022c-.234-.223-.482-.447-.716-.659l.083.268 3.315 4.87 2.559 3.775c.234.469.949 1.999.11 2.077-.757.067-2.064-.982-4.567-3.607l-2.256-2.357-4.1-1.597-3.755-1.508-2.435-2.423-.867-2.625-2.875-1.106-3.274-3.116-2.202-1.061.633 1.765 1.39 2.669 1.747 4.077-.482 1.496 1.183 3.697-1.926.927-2.751-1.061-1.142 3.585-2.16-.826-4.347-4.233-3.343-9.784-.99-4.367-1.417-3.73 2.655-.916 3.15 1.072 2.49-1.139.757-.57-.482-2.1-.509-1.295c-.495-.123-1.018-.19-1.21-.056-.083.056-.096.156-.041.324l.646 1.675-5.723-5.026-.756-1.854-4.458-3.775-1.417-.436-3.287 2.603-2.697-2.848-1.939-1.586-.867-1.933-4.444-3.529-2.613-.715-4.004-3.071-1.705-2.1-2.559-.648-1.981-1.463-5.352-1.284-.949 1.306-2.682.525 2.545 2.491 3.934 3.261 1.857.47 4.581 4.21 1.417 3.049 5.462 4.345v3.228l2.751 4.088 2.132 3.764.537 2.825-2.586-.793 1.802 4.669-1.61 1.229-3.632-3.128-1.073-2.759-.564-3.451-1.362-3.25.716-1.787-1.266-3.708-.99-.279 1.32 3.172-.413 1.91-1.884 1.53-2.985 3.339-3.866.615-4.719-1.251-2.916-2.29-.812-1.854-1.651-.402-1.293 1.106-1.871 1.105-2.38-.569-.687.592 2.957 4.188 1.679 4.11-.468 2.815-1.816.77-3.205-1.653-4.045-2.669-1.004-2.435.165-3.295-1.912-4.177-2.023-1.485 1.266-1.139-1.018-2.123-.757-.547-2.366-.491-2.435-1.72-2.269-1.463-1.142-2.245 1.004-.715-.523-.358-5.819-1.072.564 1.072 2.765 3.362 5.641 3.507 1.375 2.804-4.292-.871-3.04-.838-.22 1.016 2.476 3.116c0 .067-.028.123-.041.19-.234 1.296-.427 2.915-.303 3.284.151.301 1.568 1.921 2.765 3.25.124.145.261.29.385.436l-2.049 1.82.825 1.586-2.352 2.033-2.339.637-6.039.536-2.573-.492-3.233.615-6.699-4.68-4.224-1.62-3.15-.525-2.972-1.128-2.173-.301-2.559-2.502-.11-1.262-1.211-.771-6.149-.748-1.857.424 1.403 2.603 3.178 3.194.083 2.2-.509 3.786-.922 1.866-1.61 2.524-1.678.603-3.879-1.508-5.049-.547-2.82-1.731.247-1.832-1.953-1.809-1.651-2.335-.055-2.044-2.187-2.636-.95-1.653-.701.805-2.972-.213-.866 2.134-.95 1.105 1.376 2.971-.193 1.028 1.651 3.016 1.94 2.702.096 2.357-.577 2.424-.867 2.088-1.266 1.385-3.618-1.999a265.73 265.73 0 0 0-3.37-6.377l1.142-2.726.701-.815-.302-2.122-2.188-3.831-2.504-1.374 1.569-1.776 3.081-.949 1.899-2.245-1.17-1.955.798-4.668.647-.793-.454-.715-2.229.693-3.535-1.855-2.875-2.792 1.54-1.965-.165-1.598-4.058-5.953-.371-1.898c-.289-.414-.592-.827-.895-1.24l-1.513-1.072c-.426 0-.867-.012-1.293-.023l-6.672-2.099-.853 1.217h-4.994l-3.219.29-14.169.38-.152 1.072-1.32 1.642c-.083 0-.152.022-.234.022-1.073.123-2.146.358-2.298.492-.22.346-1.155 2.234-1.169 2.245l-1.046 1.664-3.246-.022-3.219.201-4.815-1.877 1.719-2.915-2.407-2.848-.248-6.98-3.343-5.473.207-4.066 2.669-2.077c.055-.034.302-.19.178-.38-.082-.123-.33-.279-.701-.435l-1.83 1.128-3.136-1.084-3.219-1.217-3.577-3.273 3.343-.323-.867-.626-2.064-.558-2.297-2.279-4.168-3.898-2.022.235-3.068-.927c-1.995-.592-4.059-1.408-4.526-1.597l-9.671-2.692-4.43-1.541-3.013-1.608-.509-.436c.152.279.193.57.11.894l1.335 1.128 2.792 2.279 1.651 1.452 2.917 1.262.206 2.356-2.738.726-9.987 1.653-.193 1.586-3.205-.804-4.787-.469-2.545.492-2.49.77-2.903.559-8.749-.313-6.865.112-5.118-.872-3.824-.971.468-1.698-.647-1.519-1.513-2.368-3.384-2.446-.95-2.904-2.778-1.519-2.133-1.53-1.596-3.272-2.613-2.424-2.999-1.999-2.298-2.971-2.531-3.016.275-1.407-1.376-.179.675 1.329-2.601.76 3.055 1.519.99 2.301 2.05 2.211 2.985 2.703 1.788 5.048 2.201 1.497 3.22 2.792.564 2.111 1.816 1.843 3.219 1.754 2.6 1.954 1.224 2.189 2.655 1.999 1.857 1.642 3.371.19 6.108.693 4.484.357 2.656-.581 1.554 1.508-.096 3.619-.344 1.027-3.728.816-2.779 2.379-4.003.949-1.954 2.033-2.517.603-4.843.268-3.329 1.15-4.691.927-4.457 1.285-1.802 1.273-3.041.916-2.971 1.887-.605 2.513.055 4.49 2.269 1.542-.619 2.412c-.165.681-.385 3.016-.385 3.049l-.591 2.312-2.05 2.2-6.218.816-2.958.056-2.545.58-2.311 1.676-1.995.748c-.055.29-.11.581-.179.86l1.858 1.452-.592 2.591-2.16 2.29-4.485.402-1.981.804-.137 1.709-.908 1.631-1.445.592-2.916 1.061-.206 1.228c-.014.179-.138.559-6.122 3.25l-.248.067-7.676 1.162-7.993-.57-3.398.369-1.871.972.152.011zm-2.243-1.329l1.857.357 1.555-.804 4.058-.425 7.979.57 7.14-1.117c2.366-1.083 5.076-2.368 5.489-2.714l.248-1.552 3.425-1.251 1.059-.436.716-1.295.151-1.989 2.903-1.128 3.989-.357 1.789-1.899.412-2.021-1.871-1.441.317-1.564 2.407-.904 2.284-1.698 3.219-.715 3.013-.067 5.42-.726 1.664-1.809.537-2.145c0-.056.193-2.368.371-3.082l.509-2.022-2.187-1.474-.069-4.881.661-2.792 3.453-2.167 3.012-.916 1.789-1.273 4.663-1.352 4.691-.938 3.55-1.195 4.897-.279 1.816-.458 1.94-2.033 4.044-.96 2.765-2.379 3.481-.771c.069-.212.137-.413.22-.625l.069-3.306c-.097-.101-.207-.201-.303-.291l-1.472.324-5.021-.402-6.094-.692-4.389-.246-2.421-2.145-2.861-2.2-1.239-2.189-2.242-1.642-3.439-1.887-2.077-2.145-.578-2.088-2.93-2.457-2.463-1.664-1.857-5.205-2.834-2.513-2.215-2.401-.894-2.055-4.223-2.089 3.37-.994-1.032-1.999 5.985.76-.413 2.044 2.352 2.826 2.243 2.915 2.834 1.876 2.847 2.681 1.568 3.239 1.734 1.195 3.15 1.72.963 2.971 3.315 2.457 1.583 2.49.715 1.787-.289 1.039 2.174.559 4.773.815 6.411-.145 8.653.301 2.325-.48 2.49-.771 3.013-.592 5.654.57 1.334.335.124-1.027 10.62-1.776 2.009-.536-.124-1.419-2.394-1.027-1.898-1.653-4.581-3.775c.027-.056.041-.112.068-.168.138-.368.069-.681-.206-.86-.206-.134-.536-.212-.729-.246l-2.614.447-4.319.503-3.233.603-1.844-1.486-2.242-1.776c-.564-.458-.509-.871-.248-1.184l-1.939-.558-2.958-.625.22-1.631-.151-1.921-4.87-3.641 1.54-.324 1.693-.849 3.59.737 3.673 2.803-.275.838 2.985 1.653 1.775 1.396 3.178 1.34 3.315 1.195a4.95 4.95 0 0 1 .358.134l1.953-.335 4.086 1.016-.413 1.072 1.417 1.195 2.559 1.352 3.907 1.351 9.754 2.714c.027.011.068.023.096.034.027 0 2.215.904 4.237 1.508l2.325.692 2.93-.346 2.366 2.278 2.793 2.58 1.843 1.832 1.844.503 3.081 2.245-2.393.044-1.417.145 2.104 1.944 2.587.983 1.802.614 1.857-1.15.647.223c1.362.48 2.228.994 2.572 1.53.454.704-.234 1.095-.316 1.139l-2.435 1.899-.207 3.775 3.316 5.439.22 6.813 2.531 3.016-1.472 2.457 2.531.994 2.683-.167h2.6l.798-1.285c.028-.056.949-1.91 1.183-2.278.248-.402 1.733-.67 2.724-.793l1.046-1.307.192-1.441 14.926-.435 3.219-.302 4.444-.022 1.018-1.475 7.566 2.357c.619 0 1.224.022 1.843.034l2.711 1.91 1.224 1.775.358 1.899 4.058 5.998.137 1.977-1.265 1.608 1.94 1.888 2.077 1.094 3.178-.994 1.788 2.826-.867 1.039-.715 4.244 1.266 2.122-2.38 2.703-3.082.938c-.247.301-.495.592-.756.893l1.623.894 2.545 4.523.344 2.457-.812.927-1.004 2.391 2.916 5.551 1.596.882.619-.67.798-1.977.537-2.312-.11-2.033-1.789-2.49-1.857-3.362.206-1.151-1.485-3.026 1.128-1.318.99-2.502 3.137.212 1.926-2.223 2.462 4.289 2.325 2.804.055 2.088 1.376 1.966 2.27 2.077-.22 1.62 1.169.726 4.925.581 3.288 1.273.949-.335 1.486-2.346.88-1.764.468-3.664-.069-1.764-3.026-3.083-1.899-3.474 3.04-.659 6.948.838 2.792 1.765.124 1.508 1.348 1.317 1.61.257 2.971 1.128 3.123.514 4.911 1.932 5.861 4.088 2.834-.491 2.6.491 5.585-.547 2.16-.603 1.829-1.642-.839-1.586 1.871-1.686c-.935-1.05-2.462-2.759-2.738-3.34-.288-.637-.027-2.446.166-3.596l-2.504-3.117.426-2.043 4.1 1.116 2.614.514c-.152-.324-.317-.648-.482-.971l-5.379-3.34-3.288-4.021-1.279-2.379 8.103 1.475 2.916 1.999-1.513 1.061.564 1.106 1.582 1.016 1.843 1.307 2.38.491 2.05 1.474 1.513 3.172-.853.771 1.115.827 2.242 5.048-.179 3.295.633 1.474 3.15 2.077 2.009 1.017 1.018-.436.399-2.435-1.555-3.641-3.356-4.679 1.389-1.218 2.476.581 1.514-.894 1.54-1.34 3.921.972 1.156 2.602 1.65 1.296 3.687.972 3.343-.537 2.875-3.227 1.83-1.508.289-1.575-1.802-4.077 4.264 1.173.729 1.664 1.211 3.887-.66 1.642 1.265 3.082.564 3.452.798 2.01 1.527 1.318c.165-.134.344-.268.509-.391l-2.132-5.439 2.861.86-.33-1.698-1.939-3.339-3.013-4.446v-2.87l-5.118-4.054-1.485-3.195-3.357-3.082-1.775-.447-4.815-4.01-4.072-3.953 3.632-.726 1.073-1.508 6.851 1.63 1.995 1.464 3.109.781 2.256 2.793 2.93 2.245 2.614.714 5.805 4.602.867 1.943 1.582 1.307 1.046 1.095 2.6-2.078 2.792.849 5.778 4.903.757 1.865 2.036 1.776c.027-.033.069-.067.11-.089.743-.514 2.806.212 3.04.302l.798.301 1.087 2.781.591 2.636-1.073.782-2.875 1.307-3.191-1.106-1.803.614 1.17 3.127.976 4.367a343.61 343.61 0 0 1 3.11 9.148l3.177 3.082.523.201 1.101-3.596 3.164 1.206 1.155-.558-1.086-3.384.453-1.452-1.54-3.597-1.417-2.725-1.28-3.54 4.746 2.278 3.137 2.993 3.838 1.475 1.128 3.451c.413.402.826.815 1.225 1.228l3.067 1.229 4.774 1.854 2.889 3.004c1.362 1.43 2.077 2.067 2.421 2.357-.055-.156-.137-.357-.206-.525l-2.421-3.529-3.632-5.384-1.101-3.44 2.999 2.759 3.577-.045.977 3.172 3.109 3.251.082.301c.578 1.91 4.843 6.657 7.347 9.393l.165-1.854-3.357-4.97-4.898-5.73-3.384-5.149-5.2-6.455-5.104-5.708-6.961-7.874-8.24-8.354c-3.934-3.395-7.924-6.735-11.982-10.007l-9.066-7.026c-.151-.122-3.37-2.892-6.947-5.562-2.834-2.111-3.618-3.417-3.797-4.11l-4.774-2.803-3.521-3.731-10.703-7.293-3.398-3.027-5.819-5.54-12.588-8.287-4.388-1.787-3.178.402-3.976-2.111-3.081-2.357-4.76-2.725c-.619-.335-2.669-1.028-3.852-1.385-.151-.045-.316-.089-.468-.145a488.41 488.41 0 0 0-12.518-9.773l-7.856-3.708-11.225-5.227c-1.582-.76-5.269-2.546-6.108-3.451-.358-.279-2.614-1.217-4.719-1.921a2.98 2.98 0 0 1-.192-.067l-4.375-2.223-4.086-1.687-6.589-1.809c-1.761-.704-2.876-1.363-3.288-1.966-.537-.793.371-1.095.467-1.128.083-.022.166-.056.248-.078l5.984 1.273c.152-.234.289-.469.44-.704l-6.575-3.105-9.864-3.73-5.31-3.384-7.553-2.334c-.77-.246-4.237-.57-6.974-.681-.124 0-.248 0-.372-.011l-6.534-2.368-5.957-1.329-7.965-2.424-3.137 1.787-9.643-2.413-7.8-.48-8.378-1.776-.358.927-3.109.357-3.288-3.775-4.719-1.206-4.512-.603-.688 1.954c5.187 2.558 5.888 3.306 5.366 3.675-.399.279-1.404.145-2.146-.045l-4.678-1.508-3.921-1.396-9.822-2.066-4.003-.268-6.934-1.329-5.268-.436-3.674-.648-8.914-1.273-8.736.726-3.521-2.033-3.068-.424.701 1.296-4.14.96-4.98-.726c-.028.168-.069.324-.097.491l-4.691 1.162-2.641-1.418-1.348-.156 1.527 2.044-6.273-.681-6.879-3.563-4.058-1.184.248-1.865 7.277 1.552 13.702 1.497.935-.235-1.472-.793-9.726-2.77-10.359-1.24-9.23-2.569c-1.596-.168-10.923-.96-12.629-1.027l-8.364-.425-13.345 2.078-14.018 5.126-11.776 3.451-5.654.089-1.527 1.832.097 2.346 2.6.949 6.782-.089 2.93-1.173 7.869 3.116V31.1l-4.636.972-2.628-1.083-1.238-1.162-2.187.882.069 3.876-2.587 1.072-6.273.1-3.838 1.664-5.228 2.602-4.471.179-5.255 2.457-2.352.123-4.155 1.575-6.176.402c-.675.368-1.225.804-1.197.949.027 0 .275 0 .853-.033 4.815-.346 7.992 1.564 8.13 1.642a1.03 1.03 0 0 1 .151.179l.991 3.485-4.045 2.01-4.925.313-5.131-.313-5.805.29-4.788.447.674 4.367-1.898 2.055.399 2.524 2.531-.246 4.003 1.251 3.522-.581 4.829-.391 4.594-.938 4.073-.659 1.829-.927-.137-1.43 3.439-1.72 1.871-1.798 4.663-1.307 1.211-.57-.083-1.184 3.825-1.787 11.363-.29 5.998-1.016 7.195 2.993c2.82 1.999 7.456 2.022 7.635 2.022h.289a7.14 7.14 0 0 0 .261.067c5.365 1.396 5.971 2.658 6.026 2.792l-.055 2.1-2.147.849-3.164-.313-2.916-.045v.179l3.632 1.184 2.641.056c0-.279.014-.547.028-.827l3.453-1.351 1.375-1.441.055-1.385 3.164.1c0-.145.014-.29.028-.447l-5.269-1.374-6.438-1.91-5.021-2.178c-1.321-.558-1.913-1.128-1.748-1.687.22-.782 1.789-1.195 1.968-1.24.234-.056.467-.123.701-.179l4.224 1.821 2.049.033 4.856 2.58 4.444.145c4.622.168 6.273 2.044 6.507 3.005l-.303 3.004.936.458 5.461.223 2.256 1.139-3.122 1.106 3.26 1.631 2.297-.804-.096-2.379-2.559-1.284 2.683-1.24 3.233.212 2.283-.771 3.77.279 3.026 1.597-1.458.469c0 .112-.028.223-.041.335l.206.681 3.15 1.687-.192 1.463 1.857 1.273-1.293.424c.124.067.234.134.358.19l1.664-.536 5.902 1.083 3.15-.961 2.641 1.519 4.306.726-.234 1.094-1.183 1.329a3.94 3.94 0 0 0 1.005.067c.742-.056 1.32-.357 1.637-.581-.427-.313-1.018-.86-.922-1.396.041-.235.179-1.039 7.8-.302l.949.089.193 2.178-1.651 2.1-.316 1.575c-.289 1.441-4.65 2.814-5.145 2.971l-.317.1-4.361-.514-5.2-.894-6.149-.614-6.163-.983-6.356-1.352-6.837-1.586-7.442-.424-.124 1.642-4.059 1.53-4.581-1.095-5.791-.19-2.559-2.368-4.471-.458-5.406-.056-4.279-1.754-1.307-2.178-.027-3.418-3.027.011-3.219 1.419-7.14.123-5.392-.056-10.662.838-5.489 1.396-7.662 1.686-4.774-.279-4.306.358-3.976 1.575-7.827 4.49.371 2.223-2.655 1.809-4.196 2.535-4.705 2.234-4.36 4.468-5.558 5.719.22 1.821 2.889 1.642.977 3.217-2.752 3.239.454 1.887 1.101.313.261 2.524 2.421.704 4.182 1.63 4.127 1.274 1.28 2.021 7.938 2.614 3.851.346 5.407-.156 4.058-.391 4.829-.827 5.489-.424 5.901-1.195 6.879-1.62 4.237-.19c4.787-.19 6.493 1.251 6.878 1.653l1.94.883 3.577-.659 6.452 1.329-2.215 1.117 1.665-.011 1.884 1.172.482 2.189-2.559 2.804.041 2.758 6.356 3.251 1.596 2.166.976 2.145 2.174 1.698 1.775 2.747-.138 3.15-2.38 2.837-1.706 3.361-.055 5.317 3.233 1.832 2.187 3.73 1.362 3.987.358 5.462 5.489 3.485 1.665 2.702-.152 2.603 1.995 1.508.041-.067zm103.09-83.544l1.362.29 4.498 1.296c-.288.123-.564.257-.852.38-.207.1-.592.368-.358.558l2.242 1.787.743.603 1.802-.335 4.32-.503 2.944-.514a1.48 1.48 0 0 1 .22.022c.138.011 1.252.123 2.174.592-.138-.123-.276-.234-.427-.357l.234-.592-1.458-.357c-.152.022-.317.056-.468.078.165.145.206.29.028.424-.441.346-1.156.078-3.068-.625l-3.398-1.229-3.742-1.62-1.843-1.441-3.564-1.943c.111-.313.207-.637.317-.949l-2.724-2.066-1.651-.346-1.43.637 4.072 3.072.151 2.245-.124.882v.011zm6.823-14.698c-.11-.089-.233-.179-.343-.268-.427-.29-4.471-2.212-8.186-3.853-.082-.045-.151-.089-.234-.134l-3.742-2.658c.234-.056.454-.123.688-.179 0 0 1.486-.391 1.706-1.117l.495-1.642-.522-1.821-3.687-1.195-2.504-2.145-.646-.994-2.339-1.564 6.727-1.374 7.786-.223.399.134c1.403.48 4.733 1.664 5.434 2.178.674.48 1.335 1.564 1.142 2.144-.083.257-.33.413-.715.491-.895.156-3.192-.246-4.815-.558l-.977.436c-.11.335-.206.67-.316 1.016l1.623 1.15 2.889 1.642 4.485.96 2.435 2.546-.537 1.53-2.187-.491-.922-.034-.289.838 4.43 3.351-.867 1.564-3.15.558-3.247-.29h-.014zm-7.291-4.624c2.16.949 6.562 2.982 8.062 3.797l1.706.145 2.173-.391.496-.905-4.389-3.295.578-1.731 2.793.134c.137.034.288.067.426.089.055-.145.096-.302.151-.447l-1.692-1.765-4.072-.871-3.467-1.966-2.228-1.575.481-1.575 1.995-.882c.193.045.399.078.592.123 1.705.346 3.563.637 3.962.614.068-.134-.399-1.117-.867-1.441-.33-.212-2.394-1.005-4.278-1.653l-6.824.19-4.76.972 1.362.972.674 1.028 1.995 1.698 4.141 1.363.688 2.502-.523 1.698c-.206.67-1.101 1.117-1.72 1.363l2.545 1.832v-.022zm-30.581-9.505l-5.53-.815-6.796-1.675-5.365-1.865-6.37-.726-2.476.726-4.911.078-5.558-.882c-.234-.078-2.325-.737-2.751-1.62-.207-.435.027-.849.674-1.195.784-.827 6.314-6.121 12.945-5.439.151.011.303.033.454.045l3.233 1.988.976 1.675 4.719.547 1.802-.492-3.315-1.91 11.074-.961 1.445 3.027-2.559.659 1.183 1.284 5.544 1.653 5.172 2.122 3.302 2.1-2.6 1.352-4.306.301.014.022zm-4.994-1.597l4.677.67 3.275-.234 1.403-.737-2.256-1.43-4.705-1.921-6.108-1.798-2.105-2.267 2.779-.726-.674-1.418-6.15.525 2.821 1.642-4.017 1.083-7.03-.804-1.307-2.212-2.297-1.363c-4.361-.19-9.066 3.574-10.524 5.093-.042.033-.097.067-.138.1-.371.179-.495.369-.413.57.179.391 1.156.782 1.651.949l4.664.726 3.975-.067 2.711-.793 7.717.882 5.682 1.977 6.383 1.564-.014-.011zm81.289-22.248l-2.201-1.988 2.229-.246-.633-1.731.537-1.363 3.246.871 2.573 1.206 2.49 2.535-2.422.246-.577.849-3.481-.324-1.774-.045.013-.011zm.647-1.195c.096.089.192.167.275.257h.165l2.38.212.454-.67 1.568-.156-1.403-1.419-1.898-.882c-.138-.033-.275-.067-.413-.112-.069.156-.124.324-.193.48l.826 2.1-1.747.19h-.014zm80.18 159.54l-.165-.1-4.017-4.457-.991-5.204 1.403-1.586a285.43 285.43 0 0 0-7.965-14.207l2.6-3.195 8.337 7.338-.083 2.882 2.174 4.054 3.233 3.396-.317 2.356 2.463 1.497-.991 1.061 1.225 2.558-1.665 4.076c-.041.078-.564.804-1.953.737-.963-.044-2.078-.446-3.302-1.195l.014-.011zm-2.724-4.512l3.522 3.92c.756.447 1.403.682 1.925.704.771.033 1.087-.391 1.087-.391l1.527-3.786-1.293-2.681.619-.659-2.05-1.24.344-2.624-3.04-3.217-2.352-4.456.055-2.569-6.108-5.395-1.5 1.832c2.793 4.724 5.434 9.482 7.91 14.24l-1.485 1.676.866 4.635-.027.011z"/><path d="M725.43 215.81l-3.618-2.614-2.201-2.714-4.114-3.563-3.728-2.825c-3.535-2.491-5.42-4.055-5.503-4.725-.041-.357-.178-1.43.908-1.441 1.06 0 2.339 1.05 2.82 1.486l5.586 3.574.633 1.474 2.091.223 4.085 2.748 1.431 3.619 3.838 2.714-2.215 2.033-.013.011zm-2.545-2.949l1.981 1.396.798-.748-3.082-2.167-1.431-3.607-2.985-2.011-2.916-.301-.895-2.111-5.31-3.418c-.426-.391-1.031-.826-1.238-.882 0 .022-.11.145-.055.703.303.469 2.71 2.312 4.801 3.787l3.811 2.892 4.361 3.798 2.16 2.669zm9.575-2.321l-.193-.167-2.229-2.368-6.548-4.513-2.174-5.204.757-3.652 1.678-1.698 2.807.313 3.783 2.513 1.417-1.385 4.072.983 3.879.547 3.013 2.111 3.838-.749 4.389 3.195 1.252 3.261-2.036 1.798-2.669-.469-.716.637.867 3.373-1.582 1.374-3.618-.615-1.156 1.028-3.741-.603c-.358.424-1.321 1.362-2.834 1.217-.743-.067-1.527-.391-2.256-.916v-.011zm-7.732-7.338l6.315 4.389 2.214 2.368c.331.224.633.335.95.369 1.031.1 1.884-.804 2.104-1.128l.124-.19 3.852.603 1.156-1.027 3.632.603 1.018-.894-.881-3.373 1.266-1.128 2.669.458 1.43-1.273-.894-2.301-2.903-2.111-3.838.748-3.343-2.356-3.384-.481-3.412-.826-1.76 1.698-4.568-3.05-1.596-.178-1.361 1.362-.661 3.34 1.885 4.4-.014-.022zm18.852-30.832l-4.911-3.373 2.449-2.558 7.098 3.786-2.449 2.458-2.201-.302.014-.011zm-2.806-3.061l2.902 2 .881.123 1.375-1.397-3.865-2.055-1.293 1.341v-.012zm33.286 15.961l-2.352-1.765-.936-2.178 1.362-1.217 2.545-1.117 4.127.849.949 2.256-1.348 1.173-.77 1.686c-.028.179-.317 1.307-1.582 1.218-.413-.034-1.101-.213-2.009-.894l.014-.011zm-1.046-1.955l1.761 1.318c.344.257.482.268.523.268.385.034.688-.458.771-.826l.852-1.877 1.073-.949-.22-.525-2.104-.435-2.174.927-.991.904.509 1.184v.011zm28.476 3.565l-.481-.391.289-1.898-.771-1.977.73-1.597 2.572-.503 2.421 3.406.771 2.156c0 .123-.138 1.251-.674 1.687l-.812.647c-.069.213-.303.402-.757.369-.756-.067-1.816-.681-3.26-1.876l-.028-.023zm.73-3.507l.715 1.977-.206 1.307c.921.704 1.21.759 1.21.759v-.123c.028-.011.041-.033.069-.044l.88-.704c.289-.234.441-.916.482-1.24l-.647-1.708-1.087-1.508-.894.178-.509 1.106h-.013z"/><path d="M807.77 188.35l-.715-.604 1.031-.815v-1.452l.275-.223-1.43-1.05-2.71-2.234 1.059-1.508 4.939 1.329 3.109 2.982 1.802 1.531 3.329.982 4.939 1.765 2.146-.737-.674-1.921 2.159-1.62 2.504 2.257 2.38 3.194-.825 2.223-.385 1.697-1.018 1.776-.138 1.586-2.256 1.608-2.449-.793-.261-.234-2.133-1.888-2.132-1.921-1.403-1.072-1.912-.581-2.284 1.24-.894-2.725.096-1.821-1.541-1.318.386 1.05-.262.101c-.646.245-1.252.625-1.293.804l.151.424c-.151 0-.302 0-.454-.011-.302.022-.674.045-3.122-2.021h-.014zm1.94-1.821v1.463l-.454.358.495.39c.179-.223.536-.491 1.197-.781l-.688-1.854 1.995.558 3.288 2.837-.111 1.966.537-.291 2.985.894 2.022 1.541 2.243 2.022 1.774 1.574 1.239.403 1.733-1.251.151-1.508 1.005-1.754.357-1.664.661-1.798-1.775-2.368-.688-.614-1.059.793.715 2.066-3.054 1.039-5.434-1.966-3.907-1.15-2.476-2.122-2.531-2.435-3.384-.916-.317.447 1.403 1.161 3.013 2.223-.949.748.014-.011zm14.11-4.749l.797-1.988 1.197-.916 2.146.648-1.128-2.96 1.486-1.15 3.659 3.004 1.018 2.781 2.477 3.452 2.627 2.77.894 2.647-2.517-.146-3.811-1.262-2.421-2.758-.468-1.341-1.114-.312-.825.904-4.045-3.362.028-.011zm2.324-.759l-.426 1.094 1.293 1.084.44-.481 3.426.961.839 2.345 1.39 1.598 2.82.927 1.196.044-.426-1.251-2.435-2.58-2.793-3.942-.853-2.312-1.527-1.262-.44.335 1.403 3.741-3.081-.949-.826.625v.023zM722.45 283.34l-1.802-1.753-.193-1.988-4.471-4.189-.357-2.736 2.256-1.631 1.829-.67-.605-1.43-1.678-.301 1.953-1.463-.371-.335-2.187-.38v-2.524l.949-1.095-2.146-3.462-.399-1.966-2.036-.949-3.563-1.988-3.096-1.43-2.655-2.066-3.054-.514-7.648-4.925-2.972-1.05-2.339-.939-3.109-1.552-2.682-1.798-.812-2.424.55-.826c.124-.123.454-.481 4.636 0l1.514-1.285 4.746-4.668 3.164-2.402 1.788-2.758 2.93.234 6.824 1.385 4.402 2.033 4.416 2.379 3.563 1.653 2.531-.525 3.398-.592 2.408 1.865 9.423 1.642 4.471 2.234.413 1.664 2.036 3.038c.234.145.66.357.908.167.756-.569 2.586-.96 2.669-.971.082-.023.178-.034.261-.056l3.48 1.932 4.526 1.709 2.587 2.412 3.315 4.468.427 2.401-4.059-.648-1.54.201-.289 1.989 1.403 2.859.413 2.77.908 1.083 2.806.771 3.398.893 2.944-1.854 3.288-.77 3.178.848.495 2.67-1.128 1.53.536 4.054-2.407 2.77c-.042 0-.083.022-.11.022-.661.157-1.307.458-1.376.637.055.514-.66.983-2.119 1.363l.166 2.535-1.06 3.407-1.265 2.311-.509 2.58.151 4.289-4.87 1.006-3.192 1.787-7.882-.793-2.27-.715-4.691-2.513-3.866-1.072-1.004.625-1.417-.38-4.471-.971-2.628-.838-2.146-2.2-2.957-1.307-2.6-.559-.028.045zm-.591-1.932l1.018.994 2.324.525 3.371 1.485 2.077 2.122 2.091.671 5.352 1.195 1.004-.626 4.65 1.296 4.705 2.513 1.939.592 7.333.703 3.109-1.742 4.333-.916-.138-3.764.551-2.848 1.252-2.301.99-3.283-.234-2.927.289-.067c.908-.223 1.789-.58 1.885-.793-.069-.67 1.032-1.072 1.775-1.262l2.063-2.39-.55-4.021 1.114-1.519-.206-1.128-1.527-.413-2.944.681-3.109 1.977-3.935-1.038-3.466-.972-1.679-2.01-.468-3.061-1.472-2.915.399-2.77 2.353-.29 2.999.469-.193-1.083-3.026-4.066-2.036-1.876-4.334-1.653-2.916-1.62c-.592.134-1.665.436-2.105.771-.825.625-2.201-.089-2.834-.559l-.165-.122-2.421-3.686-.262-1.039-3.425-1.709-9.533-1.63-2.119-1.653-2.641.458-3.013.614-4.237-1.966-4.43-2.39-4.223-1.955-6.356-1.273-2.16-.167-1.609 2.457-3.233 2.435-4.76 4.646-1.843 1.564-.289-.034c-1.61-.201-3.536-.324-4.004-.246l-.288.436.564 1.675 2.146 1.441 2.834 1.418 2.214.883 3.233 1.161 7.401 4.758 3.123.525 2.972 2.301 2.834 1.273 3.563 1.988 2.806 1.307.509 2.558 2.366 3.764-1.155 1.306v1.095l1.252.212 1.815 1.62-1.128.837 1.183 2.793-2.49.904-1.788 1.307.248 1.876 4.484 4.211.193 1.988.028-.022zm-9.489 2.742l-1.569-3.027 1.61-1.083 1.829-.234 1.583-.894 2.269 2.144-.357.615 3.164 3.071-2.05 1.385-2.462-.592-1.72-.368-2.297-1.028v.011zm-.097-2.513l.963 1.854 1.637.726 1.472.291 1.954.458.866-.592-2.902-2.793.357-.614-.701-.659-1.032.536-1.802.224-.798.569h-.014zm76.487-49.017l-3.026-4.066 2.201-.781 3.302 3.127-2.49 1.72h.013zm-1.073-3.161l.936 1.262.591-.413-1.073-1.005-.467.167.013-.011zm17.173 72.451l-1.142-2.055-.179-2.268-2.119-2.937 2.325-1.128 2.009 2.792 3.866.57-2.133 3.808-2.627 1.218zm.096-1.921s.055.111.096.167l1.459-.681.88-1.642-1.995-.29-1.651-2.323-.509.245 1.541 2.156.179 2.379v-.011zM788.96 280.63a1.72 1.72 0 0 0-.138-.201l-2.159-4.222-1.775-2.077-.468-2.681-.523-5.149-.454-1.262-1.747-.849-1.32.805-5.338-5.685-1.348-3.072-3.866-4.601 2.518-1.698 1.595 1.575.867-.57c.179-.112.151-.748.028-1.251l-.427-2.301-1.995-3.306-2.723-3.194-2.518-2.334 3.618-.648-1.348-1.888v-2.959l2.256.58 3.522 2.882.935 3.071-.839 2.268.784.748 6.108 2.424 2.518 2.535 1.568 3.686 1.995 3.741 2.517 3.753 1.541 3.44 1.087 3.574.715 3.407-2.325 1.34-1.444 1.798.22 2.636.688 3.909-.041 2.357c-.028.044-.331.469-.977.313-.303-.067-.771-.291-1.28-.927l-.027.033zm-2.834-6.556l1.623 1.943 2.16 4.222c.014.022.041.034.055.045l-.014-1.865-.701-3.865-.262-3.027 1.734-2.133 1.967-1.139-.592-2.759-1.045-3.418-1.486-3.272-2.449-3.641-2.091-3.909-1.458-3.407-1.816-1.831-6.094-2.424-1.967-1.888.977-2.669-.688-2.245-2.531-2.077-.592-.157v1.698l1.912 2.692-3.191.547 1.004.938 2.971 3.496 2.201 3.742.441 2.379c.055.223.371 1.574-.276 2.01l-1.692 1.117-1.582-1.586-.99.67 3.246 3.931 1.252 2.871 4.017 4.278.908-.559 3.329 1.608.812 2.301.523 5.183.385 2.2zm10.204 2.726l-2.173-2.625.413-3.116 3.508 3.049 2.861 1.129 2.38 1.262-.096-1.531-1.569-3.507 3.151 1.251 1.705 2.592.193 3.082-.151 2.111-2.49.29-4.609-1.909-3.109-2.067-.014-.011zm-.77-2.479l1.403 1.697 2.697 1.787 3.961 1.609 1.638-.19.096-1.463-.165-2.614-.991-1.496-.467-.19.797 1.932.193 3.06-3.811-2.044-3.109-1.228-2.104-1.843-.138.994v-.011zm6.48 17.519l-1.953-2.614 2.586-1.307-.853-1.117-.096-3.138 1.472-.76 2.449-1.653.192 5.373 1.514 2.032.027 2.201-3.824 1.82-1.514-.815v-.022zm-.123-1.832l.701.938.454.246 2.999-1.441-.014-1.173-1.513-2.021-.082-2.614-.276.19-1.128.581.069 2.144 1.403 1.865-2.586 1.296-.027-.011z"/><path d="M806.56 296.68l-2.132-2.971.743-.637V292l1.692-.826 2.366 2.959-1.334 1.921-1.335.637v-.011zm-.454-2.346l.454.648.344-.167.73-1.095-.702-.871-.482.234v.961l-.344.302v-.012zM729.9 220.16l-2.917-2.134 1.582-2.535 6.494 5.205-5.159-.525v-.011zm-1.142-2l1.279.938 1.775.168-2.504-1.999-.55.882v.011z"/><path d="M732.5 224.43l-1.802-4.289 4.608 3.474.839 2.636-3.631-1.821h-.014zm.825-1.139l.262.637.591.29-.124-.369-.729-.558z"/><path d="M738.84 226.57l-4.251-3.295 1.637-1.419 3.425 2.279 2.435 3.004-3.26-.581.014.012zm-2.284-2.971l2.504 1.954.495.09-.784-.972-1.94-1.296-.275.235v-.011zm6.014 8.781l-3.728-3.44 1.706-1.418 4.897 1.977 4.815 3.205.592 2.279-4.196-2.089-.894-.748-2.532-.492-.66.726zm-1.857-3.026l1.362 1.262.179-.201 3.755.715 1.266 1.049 1.747.838v-.022l-4.003-2.658-3.715-1.486-.605.491.014.012zm.647-8.114l-5.613-4.267 3.068-1.597-.495-1.396 3.755-.949 2.146.692 2.119-1.776 2.806-.714 2.504 1.429 4.292 3.072 3.247 2.613 3.604 1.62-2.545 1.172-2.091-.435c-.11.056-.275.089-.468.067-.261-.023-.688-.145-1.224-.592-.702-.581-2.738-2.536-2.958-2.759l-.179-.179-.344-1.038-2.765-1.195-.976-.179.247.737 2.394 1.888 2.944 2.736-5.407-1.061.688 2.178-1.953 1.608-1.83-.346-2.407-1.899 1.582-1.329-.839-1.273-2.105-.369.206.637-1.362 2.904h-.041zm-3.398-3.786l2.518 1.91.729-1.586-.496-1.452 4.568.793 1.857 2.825-1.293 1.073.646.513.661.123 1.334-1.106-.908-2.836 3.921.737-.496-.447-2.833-2.223-.812-2.356 2.765.536 3.948 1.697.496 1.486 2.448 2.29c0-.012.014-.034.028-.045l2.338.491.413-.19-1.1-.491-3.481-2.815-4.113-2.948-1.596-.905-2.105.536-2.311 1.988-2.435-.804-2.682.67.44 1.274-2.463 1.273.014-.011zm27.768 11.126l-5.048-4.568 4.127.927 2.104-2.39.537.268c.193.1 1.885.972 2.738 1.697 1.265 1.106.137 2.111-.234 2.391l-.097.078c-.522 0-1.045 0-1.568-.011l-1.004.77-1.541.827-.014.011zm-1.513-2.681l1.224 1.106.647-.357 1.169-.894h1.569c.275-.234.495-.547.495-.726-.358-.279-1.004-.659-1.541-.96l-1.953 2.189-1.61-.369v.011zm-4.147 6.191l-.592-2.256 1.472-1.128 3.714 3.295 1.954 3.172-3.481-.581-3.067-2.513v.011zm.935-1.452l.33 1.251 1.981 1.619 1.128.179-.921-1.474-2.146-1.865-.386.29h.014zm-5.645-30.048l-3.783-3.161.082-.302c.014-.056.413-1.508 2.463-1.15 1.637.279 4.691 1.117 4.828 1.15l.674.19.716 1.854-1.28 1.005-3.7.402v.012zm-2.05-2.96l2.008 1.675 2.683-.29.674-.592-.124-.324-3.962-.938c-.742-.134-1.114.212-1.279.469zm12.7 3.76l-2.821-3.552 1.706-1.765.11-2.781 1.541-2.77 5.296-1.429 3.398 4.311-1.829 2.167-2.793.871.784 2.088 2.944 2.793-.316 2.177-1.348 1.106-2.834-2.323-1.472-1.954-.757-.592-1.609 1.653zm-1.005-2.96l.674.849 1.225-1.285 2.6 2.078 1.472 1.965 1.114.883.523-.436.151-1.351-2.696-2.536-1.197-3.16 3.205-1.017 1.362-1.63-1.719-2.167-3.783 1.005-1.417 2.513-.165 2.859-1.376 1.407.027.023zm1.955 17.43l-2.711-2.222-.123-3.44-3.192-2.535 2.628-1.43 3.315 2.647 6.768 1.619.179.604c1.005 3.54.606 3.842.482 3.942l-1.926 1.497-1.403.804-4.017-1.474v-.012zm-1.225-2.244l1.596 1.306 2.875 1.039.949-.547 1.871-1.486c.069-.19-.178-1.418-.495-2.636l-5.86-1.396-2.669-2.133-.825.447 2.434 1.954.11 3.44.014.012z"/><path d="M765.71 208.27l-1.032-2.949.757-.625-.688-1.899-.289-1.385 1.899-.838 2.187 1.72 1.582.246 2.022 1.608-2.242.57-.674-.145-.592.324.275.793c.289.379.895 1.284.386 1.697-.399.324-2.16.637-2.697.726l-.908.157h.014zm.605-2.156l.22.614c.702-.145 1.321-.312 1.445-.413.014-.067-.165-.368-.317-.547l-.123-.145-.578-1.631 1.307-.737-1.527-1.206-.674.301.165.804.825 2.323-.757.626.014.011z"/><path d="M769.54 208.1l2.146-1.742-.908-2.625 5.503 3.719.949 2.871-2.82-.782-1.61.447-3.246-1.877-.014-.011zm3.508-1.72l.275.804-1.444 1.173.44.257 1.32-.369 1.693.469-.331-.982-1.953-1.33v-.022z"/></svg>