<svg xmlns="http://www.w3.org/2000/svg" width="3" height="42" fill="none" xmlns:v="https://vecta.io/nano"><path d="M1.5 31.07c-.385 0-.7-.495-.7-1.1V1.54c0-.605.315-1.1.7-1.1s.7.495.7 1.1v28.43c0 .605-.315 1.1-.7 1.1z" fill="url(#A)" fill-opacity=".4"/><path d="M1.5 38.853c-.387 0-.7.492-.7 1.1s.313 1.1.7 1.1.7-.492.7-1.1-.313-1.1-.7-1.1zm0-4.989c-.387 0-.7.492-.7 1.1s.313 1.1.7 1.1.7-.492.7-1.1-.313-1.1-.7-1.1z" fill-opacity=".4" fill="#fff"/><defs><linearGradient id="A" x1="1.5" y1=".44" x2="1.5" y2="31.07" gradientUnits="userSpaceOnUse"><stop stop-color="#fff" stop-opacity="0"/><stop offset="1" stop-color="#fff"/></linearGradient></defs></svg>